M48
; DRILL file {KiCad (7.0.0)} date Mon May 15 22:46:24 2023
; FORMAT={-:-/ absolute / metric / decimal}
; #@! TF.CreationDate,2023-05-15T22:46:24-04:00
; #@! TF.GenerationSoftware,Kicad,Pcbnew,(7.0.0)
; #@! TF.FileFunction,Plated,1,2,PTH
FMAT,2
METRIC
; #@! TA.AperFunction,Plated,PTH,ViaDrill
T1C0.400
; #@! TA.AperFunction,Plated,PTH,ComponentDrill
T2C0.719
; #@! TA.AperFunction,Plated,PTH,ComponentDrill
T3C0.762
; #@! TA.AperFunction,Plated,PTH,ComponentDrill
T4C0.787
; #@! TA.AperFunction,Plated,PTH,ComponentDrill
T5C0.800
; #@! TA.AperFunction,Plated,PTH,ComponentDrill
T6C0.889
; #@! TA.AperFunction,Plated,PTH,ComponentDrill
T7C1.000
%
G90
G05
T1
X128.778Y-90.106
X129.794Y-85.788
X129.794Y-109.664
X130.556Y-83.248
X130.556Y-107.124
X131.318Y-80.709
X131.318Y-104.584
X131.572Y-142.684
X132.08Y-78.168
X132.08Y-102.044
X135.636Y-148.526
X136.144Y-90.106
X140.97Y-139.129
X141.986Y-139.129
X143.002Y-139.129
X143.002Y-149.796
T2
X138.938Y-68.008
X138.938Y-70.548
X138.938Y-73.088
X138.938Y-75.629
X138.938Y-78.168
X138.938Y-80.709
X138.938Y-83.248
X138.938Y-85.788
X138.938Y-88.328
X138.938Y-91.885
X138.938Y-94.424
X138.938Y-96.965
X138.938Y-99.504
X138.938Y-102.044
X138.938Y-104.584
X138.938Y-107.124
X138.938Y-109.664
X138.938Y-112.204
X138.938Y-115.76
X138.938Y-118.3
X138.938Y-120.84
X138.938Y-123.38
X138.938Y-125.92
X138.938Y-128.46
X138.938Y-131.0
X138.938Y-133.54
X138.938Y-136.081
X146.558Y-68.008
X146.558Y-70.548
X146.558Y-73.088
X146.558Y-75.629
X146.558Y-78.168
X146.558Y-80.709
X146.558Y-83.248
X146.558Y-85.788
X146.558Y-88.328
X146.558Y-91.885
X146.558Y-94.424
X146.558Y-96.965
X146.558Y-99.504
X146.558Y-102.044
X146.558Y-104.584
X146.558Y-107.124
X146.558Y-109.664
X146.558Y-112.204
X146.558Y-115.76
X146.558Y-118.3
X146.558Y-120.84
X146.558Y-123.38
X146.558Y-125.92
X146.558Y-128.46
X146.558Y-131.0
X146.558Y-133.54
X146.558Y-136.081
T3
X129.54Y-156.147
X132.08Y-156.147
X134.62Y-156.147
X137.16Y-156.147
X139.7Y-156.147
X142.24Y-156.147
T4
X125.793Y-70.548
X125.793Y-73.088
X125.793Y-75.629
X125.793Y-78.168
X125.793Y-80.709
X125.793Y-83.248
X125.793Y-85.788
X125.793Y-88.328
X125.793Y-94.424
X125.793Y-96.965
X125.793Y-99.504
X125.793Y-102.044
X125.793Y-104.584
X125.793Y-107.124
X125.793Y-109.664
X125.793Y-112.204
X125.793Y-118.3
X125.793Y-120.84
X125.793Y-123.38
X125.793Y-125.92
X125.793Y-128.46
X125.793Y-131.0
X125.793Y-133.54
X125.793Y-136.081
X133.413Y-70.548
X133.413Y-73.088
X133.413Y-75.629
X133.413Y-78.168
X133.413Y-80.709
X133.413Y-83.248
X133.413Y-85.788
X133.413Y-88.328
X133.413Y-94.424
X133.413Y-96.965
X133.413Y-99.504
X133.413Y-102.044
X133.413Y-104.584
X133.413Y-107.124
X133.413Y-109.664
X133.413Y-112.204
X133.413Y-118.3
X133.413Y-120.84
X133.413Y-123.38
X133.413Y-125.92
X133.413Y-128.46
X133.413Y-131.0
X133.413Y-133.54
X133.413Y-136.081
T5
X124.988Y-67.501
X125.73Y-139.636
X127.488Y-67.501
X128.23Y-139.636
X136.144Y-68.008
X136.144Y-70.548
X136.144Y-73.088
X136.144Y-75.629
X136.144Y-78.168
X136.144Y-80.709
X136.144Y-83.248
X136.144Y-85.788
X136.144Y-88.328
X136.144Y-91.885
X136.144Y-94.424
X136.144Y-96.965
X136.144Y-99.504
X136.144Y-102.044
X136.144Y-104.584
X136.144Y-107.124
X136.144Y-109.664
X136.144Y-112.204
X136.144Y-115.76
X136.144Y-118.3
X136.144Y-120.84
X136.144Y-123.38
X136.144Y-125.92
X136.144Y-128.46
X136.144Y-131.0
X136.144Y-133.54
X136.144Y-136.081
X148.844Y-147.511
X148.844Y-150.01
T6
X124.206Y-23.558
X124.206Y-26.098
X124.206Y-28.638
X124.206Y-31.178
X124.206Y-33.718
X124.206Y-36.258
X124.206Y-38.798
X124.206Y-41.338
X124.206Y-43.878
X124.206Y-46.418
X124.206Y-48.959
X124.206Y-51.498
X124.206Y-54.038
X124.206Y-56.578
X124.206Y-59.118
X147.066Y-23.558
X147.066Y-26.098
X147.066Y-28.638
X147.066Y-31.178
X147.066Y-33.718
X147.066Y-36.258
X147.066Y-38.798
X147.066Y-41.338
X147.066Y-43.878
X147.066Y-46.418
X147.066Y-48.959
X147.066Y-51.498
X147.066Y-54.038
X147.066Y-56.578
X147.066Y-59.118
T7
X123.698Y-147.494G85X123.698Y-145.494
G05
X127.698Y-151.195G85X125.698Y-151.195
G05
X129.698Y-147.744G85X129.698Y-145.244
G05
T0
M30
