%TF.GenerationSoftware,KiCad,Pcbnew,(7.0.0)*%
%TF.CreationDate,2023-05-15T22:46:06-04:00*%
%TF.ProjectId,clockPCB,636c6f63-6b50-4434-922e-6b696361645f,rev?*%
%TF.SameCoordinates,Original*%
%TF.FileFunction,Legend,Top*%
%TF.FilePolarity,Positive*%
%FSLAX46Y46*%
G04 Gerber Fmt 4.6, Leading zero omitted, Abs format (unit mm)*
G04 Created by KiCad (PCBNEW (7.0.0)) date 2023-05-15 22:46:06*
%MOMM*%
%LPD*%
G01*
G04 APERTURE LIST*
%ADD10C,0.150000*%
%ADD11C,0.300000*%
%ADD12C,0.125000*%
%ADD13C,0.250000*%
%ADD14C,0.120000*%
%ADD15C,0.127000*%
%ADD16C,0.200000*%
%ADD17C,0.400000*%
%ADD18C,0.100000*%
%ADD19R,2.286000X1.524000*%
%ADD20C,1.600000*%
%ADD21R,1.600000X1.600000*%
%ADD22R,2.286000X6.096000*%
%ADD23R,1.295400X1.295400*%
%ADD24C,1.295400*%
%ADD25C,3.200000*%
%ADD26R,1.930000X1.930000*%
%ADD27C,1.930000*%
%ADD28C,1.200000*%
%ADD29O,2.500000X5.000000*%
%ADD30O,2.250000X4.500000*%
%ADD31O,4.500000X2.250000*%
%ADD32R,1.227074X1.227074*%
%ADD33C,1.227074*%
%ADD34C,1.524000*%
%ADD35R,2.500000X2.500000*%
G04 APERTURE END LIST*
D10*
X135839200Y-18059400D02*
X135839200Y-19888200D01*
D11*
X135546857Y-18238428D02*
X135832571Y-18024142D01*
X135832571Y-18024142D02*
X136118285Y-18238428D01*
X133961142Y-20525571D02*
X133961142Y-21739857D01*
X133961142Y-21739857D02*
X134032571Y-21882714D01*
X134032571Y-21882714D02*
X134104000Y-21954142D01*
X134104000Y-21954142D02*
X134246857Y-22025571D01*
X134246857Y-22025571D02*
X134532571Y-22025571D01*
X134532571Y-22025571D02*
X134675428Y-21954142D01*
X134675428Y-21954142D02*
X134746857Y-21882714D01*
X134746857Y-21882714D02*
X134818285Y-21739857D01*
X134818285Y-21739857D02*
X134818285Y-20525571D01*
X135461143Y-21954142D02*
X135675429Y-22025571D01*
X135675429Y-22025571D02*
X136032571Y-22025571D01*
X136032571Y-22025571D02*
X136175429Y-21954142D01*
X136175429Y-21954142D02*
X136246857Y-21882714D01*
X136246857Y-21882714D02*
X136318286Y-21739857D01*
X136318286Y-21739857D02*
X136318286Y-21597000D01*
X136318286Y-21597000D02*
X136246857Y-21454142D01*
X136246857Y-21454142D02*
X136175429Y-21382714D01*
X136175429Y-21382714D02*
X136032571Y-21311285D01*
X136032571Y-21311285D02*
X135746857Y-21239857D01*
X135746857Y-21239857D02*
X135604000Y-21168428D01*
X135604000Y-21168428D02*
X135532571Y-21097000D01*
X135532571Y-21097000D02*
X135461143Y-20954142D01*
X135461143Y-20954142D02*
X135461143Y-20811285D01*
X135461143Y-20811285D02*
X135532571Y-20668428D01*
X135532571Y-20668428D02*
X135604000Y-20597000D01*
X135604000Y-20597000D02*
X135746857Y-20525571D01*
X135746857Y-20525571D02*
X136104000Y-20525571D01*
X136104000Y-20525571D02*
X136318286Y-20597000D01*
X137461142Y-21239857D02*
X137675428Y-21311285D01*
X137675428Y-21311285D02*
X137746857Y-21382714D01*
X137746857Y-21382714D02*
X137818285Y-21525571D01*
X137818285Y-21525571D02*
X137818285Y-21739857D01*
X137818285Y-21739857D02*
X137746857Y-21882714D01*
X137746857Y-21882714D02*
X137675428Y-21954142D01*
X137675428Y-21954142D02*
X137532571Y-22025571D01*
X137532571Y-22025571D02*
X136961142Y-22025571D01*
X136961142Y-22025571D02*
X136961142Y-20525571D01*
X136961142Y-20525571D02*
X137461142Y-20525571D01*
X137461142Y-20525571D02*
X137604000Y-20597000D01*
X137604000Y-20597000D02*
X137675428Y-20668428D01*
X137675428Y-20668428D02*
X137746857Y-20811285D01*
X137746857Y-20811285D02*
X137746857Y-20954142D01*
X137746857Y-20954142D02*
X137675428Y-21097000D01*
X137675428Y-21097000D02*
X137604000Y-21168428D01*
X137604000Y-21168428D02*
X137461142Y-21239857D01*
X137461142Y-21239857D02*
X136961142Y-21239857D01*
D12*
X135254952Y-139225690D02*
X134969238Y-139225690D01*
X135112095Y-139225690D02*
X135112095Y-138725690D01*
X135112095Y-138725690D02*
X135064476Y-138797119D01*
X135064476Y-138797119D02*
X135016857Y-138844738D01*
X135016857Y-138844738D02*
X134969238Y-138868547D01*
X135445428Y-138773309D02*
X135469237Y-138749500D01*
X135469237Y-138749500D02*
X135516856Y-138725690D01*
X135516856Y-138725690D02*
X135635904Y-138725690D01*
X135635904Y-138725690D02*
X135683523Y-138749500D01*
X135683523Y-138749500D02*
X135707332Y-138773309D01*
X135707332Y-138773309D02*
X135731142Y-138820928D01*
X135731142Y-138820928D02*
X135731142Y-138868547D01*
X135731142Y-138868547D02*
X135707332Y-138939976D01*
X135707332Y-138939976D02*
X135421618Y-139225690D01*
X135421618Y-139225690D02*
X135731142Y-139225690D01*
X135897808Y-138892357D02*
X136016856Y-139225690D01*
X136016856Y-139225690D02*
X136135903Y-138892357D01*
X136626379Y-139035214D02*
X137007332Y-139035214D01*
X137245427Y-138892357D02*
X137626380Y-139035214D01*
X137626380Y-139035214D02*
X137245427Y-139178071D01*
X138402570Y-138725690D02*
X138164475Y-138725690D01*
X138164475Y-138725690D02*
X138140666Y-138963785D01*
X138140666Y-138963785D02*
X138164475Y-138939976D01*
X138164475Y-138939976D02*
X138212094Y-138916166D01*
X138212094Y-138916166D02*
X138331142Y-138916166D01*
X138331142Y-138916166D02*
X138378761Y-138939976D01*
X138378761Y-138939976D02*
X138402570Y-138963785D01*
X138402570Y-138963785D02*
X138426380Y-139011404D01*
X138426380Y-139011404D02*
X138426380Y-139130452D01*
X138426380Y-139130452D02*
X138402570Y-139178071D01*
X138402570Y-139178071D02*
X138378761Y-139201880D01*
X138378761Y-139201880D02*
X138331142Y-139225690D01*
X138331142Y-139225690D02*
X138212094Y-139225690D01*
X138212094Y-139225690D02*
X138164475Y-139201880D01*
X138164475Y-139201880D02*
X138140666Y-139178071D01*
X138593046Y-138892357D02*
X138712094Y-139225690D01*
X138712094Y-139225690D02*
X138831141Y-138892357D01*
X134993047Y-140035690D02*
X134993047Y-139535690D01*
X134993047Y-139535690D02*
X135183523Y-139535690D01*
X135183523Y-139535690D02*
X135231142Y-139559500D01*
X135231142Y-139559500D02*
X135254952Y-139583309D01*
X135254952Y-139583309D02*
X135278761Y-139630928D01*
X135278761Y-139630928D02*
X135278761Y-139702357D01*
X135278761Y-139702357D02*
X135254952Y-139749976D01*
X135254952Y-139749976D02*
X135231142Y-139773785D01*
X135231142Y-139773785D02*
X135183523Y-139797595D01*
X135183523Y-139797595D02*
X134993047Y-139797595D01*
X135445428Y-139535690D02*
X135778761Y-140035690D01*
X135778761Y-139535690D02*
X135445428Y-140035690D01*
X136064475Y-139535690D02*
X136159713Y-139535690D01*
X136159713Y-139535690D02*
X136207332Y-139559500D01*
X136207332Y-139559500D02*
X136254951Y-139607119D01*
X136254951Y-139607119D02*
X136278761Y-139702357D01*
X136278761Y-139702357D02*
X136278761Y-139869023D01*
X136278761Y-139869023D02*
X136254951Y-139964261D01*
X136254951Y-139964261D02*
X136207332Y-140011880D01*
X136207332Y-140011880D02*
X136159713Y-140035690D01*
X136159713Y-140035690D02*
X136064475Y-140035690D01*
X136064475Y-140035690D02*
X136016856Y-140011880D01*
X136016856Y-140011880D02*
X135969237Y-139964261D01*
X135969237Y-139964261D02*
X135945428Y-139869023D01*
X135945428Y-139869023D02*
X135945428Y-139702357D01*
X135945428Y-139702357D02*
X135969237Y-139607119D01*
X135969237Y-139607119D02*
X136016856Y-139559500D01*
X136016856Y-139559500D02*
X136064475Y-139535690D01*
X136445428Y-139535690D02*
X136778761Y-139535690D01*
X136778761Y-139535690D02*
X136564476Y-140035690D01*
X137040666Y-139749976D02*
X136993047Y-139726166D01*
X136993047Y-139726166D02*
X136969237Y-139702357D01*
X136969237Y-139702357D02*
X136945428Y-139654738D01*
X136945428Y-139654738D02*
X136945428Y-139630928D01*
X136945428Y-139630928D02*
X136969237Y-139583309D01*
X136969237Y-139583309D02*
X136993047Y-139559500D01*
X136993047Y-139559500D02*
X137040666Y-139535690D01*
X137040666Y-139535690D02*
X137135904Y-139535690D01*
X137135904Y-139535690D02*
X137183523Y-139559500D01*
X137183523Y-139559500D02*
X137207332Y-139583309D01*
X137207332Y-139583309D02*
X137231142Y-139630928D01*
X137231142Y-139630928D02*
X137231142Y-139654738D01*
X137231142Y-139654738D02*
X137207332Y-139702357D01*
X137207332Y-139702357D02*
X137183523Y-139726166D01*
X137183523Y-139726166D02*
X137135904Y-139749976D01*
X137135904Y-139749976D02*
X137040666Y-139749976D01*
X137040666Y-139749976D02*
X136993047Y-139773785D01*
X136993047Y-139773785D02*
X136969237Y-139797595D01*
X136969237Y-139797595D02*
X136945428Y-139845214D01*
X136945428Y-139845214D02*
X136945428Y-139940452D01*
X136945428Y-139940452D02*
X136969237Y-139988071D01*
X136969237Y-139988071D02*
X136993047Y-140011880D01*
X136993047Y-140011880D02*
X137040666Y-140035690D01*
X137040666Y-140035690D02*
X137135904Y-140035690D01*
X137135904Y-140035690D02*
X137183523Y-140011880D01*
X137183523Y-140011880D02*
X137207332Y-139988071D01*
X137207332Y-139988071D02*
X137231142Y-139940452D01*
X137231142Y-139940452D02*
X137231142Y-139845214D01*
X137231142Y-139845214D02*
X137207332Y-139797595D01*
X137207332Y-139797595D02*
X137183523Y-139773785D01*
X137183523Y-139773785D02*
X137135904Y-139749976D01*
X137445427Y-139845214D02*
X137826380Y-139845214D01*
X138302570Y-139535690D02*
X138064475Y-139535690D01*
X138064475Y-139535690D02*
X138040666Y-139773785D01*
X138040666Y-139773785D02*
X138064475Y-139749976D01*
X138064475Y-139749976D02*
X138112094Y-139726166D01*
X138112094Y-139726166D02*
X138231142Y-139726166D01*
X138231142Y-139726166D02*
X138278761Y-139749976D01*
X138278761Y-139749976D02*
X138302570Y-139773785D01*
X138302570Y-139773785D02*
X138326380Y-139821404D01*
X138326380Y-139821404D02*
X138326380Y-139940452D01*
X138326380Y-139940452D02*
X138302570Y-139988071D01*
X138302570Y-139988071D02*
X138278761Y-140011880D01*
X138278761Y-140011880D02*
X138231142Y-140035690D01*
X138231142Y-140035690D02*
X138112094Y-140035690D01*
X138112094Y-140035690D02*
X138064475Y-140011880D01*
X138064475Y-140011880D02*
X138040666Y-139988071D01*
X138635903Y-139535690D02*
X138683522Y-139535690D01*
X138683522Y-139535690D02*
X138731141Y-139559500D01*
X138731141Y-139559500D02*
X138754951Y-139583309D01*
X138754951Y-139583309D02*
X138778760Y-139630928D01*
X138778760Y-139630928D02*
X138802570Y-139726166D01*
X138802570Y-139726166D02*
X138802570Y-139845214D01*
X138802570Y-139845214D02*
X138778760Y-139940452D01*
X138778760Y-139940452D02*
X138754951Y-139988071D01*
X138754951Y-139988071D02*
X138731141Y-140011880D01*
X138731141Y-140011880D02*
X138683522Y-140035690D01*
X138683522Y-140035690D02*
X138635903Y-140035690D01*
X138635903Y-140035690D02*
X138588284Y-140011880D01*
X138588284Y-140011880D02*
X138564475Y-139988071D01*
X138564475Y-139988071D02*
X138540665Y-139940452D01*
X138540665Y-139940452D02*
X138516856Y-139845214D01*
X138516856Y-139845214D02*
X138516856Y-139726166D01*
X138516856Y-139726166D02*
X138540665Y-139630928D01*
X138540665Y-139630928D02*
X138564475Y-139583309D01*
X138564475Y-139583309D02*
X138588284Y-139559500D01*
X138588284Y-139559500D02*
X138635903Y-139535690D01*
X139112093Y-139535690D02*
X139159712Y-139535690D01*
X139159712Y-139535690D02*
X139207331Y-139559500D01*
X139207331Y-139559500D02*
X139231141Y-139583309D01*
X139231141Y-139583309D02*
X139254950Y-139630928D01*
X139254950Y-139630928D02*
X139278760Y-139726166D01*
X139278760Y-139726166D02*
X139278760Y-139845214D01*
X139278760Y-139845214D02*
X139254950Y-139940452D01*
X139254950Y-139940452D02*
X139231141Y-139988071D01*
X139231141Y-139988071D02*
X139207331Y-140011880D01*
X139207331Y-140011880D02*
X139159712Y-140035690D01*
X139159712Y-140035690D02*
X139112093Y-140035690D01*
X139112093Y-140035690D02*
X139064474Y-140011880D01*
X139064474Y-140011880D02*
X139040665Y-139988071D01*
X139040665Y-139988071D02*
X139016855Y-139940452D01*
X139016855Y-139940452D02*
X138993046Y-139845214D01*
X138993046Y-139845214D02*
X138993046Y-139726166D01*
X138993046Y-139726166D02*
X139016855Y-139630928D01*
X139016855Y-139630928D02*
X139040665Y-139583309D01*
X139040665Y-139583309D02*
X139064474Y-139559500D01*
X139064474Y-139559500D02*
X139112093Y-139535690D01*
X139493045Y-139845214D02*
X139873998Y-139845214D01*
X140112093Y-140035690D02*
X140112093Y-139535690D01*
X140112093Y-139535690D02*
X140278760Y-139892833D01*
X140278760Y-139892833D02*
X140445426Y-139535690D01*
X140445426Y-139535690D02*
X140445426Y-140035690D01*
D13*
X128789238Y-120776976D02*
X128741619Y-120919833D01*
X128741619Y-120919833D02*
X128741619Y-121157928D01*
X128741619Y-121157928D02*
X128789238Y-121253166D01*
X128789238Y-121253166D02*
X128836857Y-121300785D01*
X128836857Y-121300785D02*
X128932095Y-121348404D01*
X128932095Y-121348404D02*
X129027333Y-121348404D01*
X129027333Y-121348404D02*
X129122571Y-121300785D01*
X129122571Y-121300785D02*
X129170190Y-121253166D01*
X129170190Y-121253166D02*
X129217809Y-121157928D01*
X129217809Y-121157928D02*
X129265428Y-120967452D01*
X129265428Y-120967452D02*
X129313047Y-120872214D01*
X129313047Y-120872214D02*
X129360666Y-120824595D01*
X129360666Y-120824595D02*
X129455904Y-120776976D01*
X129455904Y-120776976D02*
X129551142Y-120776976D01*
X129551142Y-120776976D02*
X129646380Y-120824595D01*
X129646380Y-120824595D02*
X129694000Y-120872214D01*
X129694000Y-120872214D02*
X129741619Y-120967452D01*
X129741619Y-120967452D02*
X129741619Y-121205547D01*
X129741619Y-121205547D02*
X129694000Y-121348404D01*
X128741619Y-121776976D02*
X129741619Y-121776976D01*
X129741619Y-121776976D02*
X128741619Y-122348404D01*
X128741619Y-122348404D02*
X129741619Y-122348404D01*
X129741619Y-122729357D02*
X129741619Y-123396023D01*
X129741619Y-123396023D02*
X128741619Y-122967452D01*
X129408285Y-124205547D02*
X128741619Y-124205547D01*
X129789238Y-123967452D02*
X129074952Y-123729357D01*
X129074952Y-123729357D02*
X129074952Y-124348404D01*
X129027333Y-124681738D02*
X129027333Y-125157928D01*
X128741619Y-124586500D02*
X129741619Y-124919833D01*
X129741619Y-124919833D02*
X128741619Y-125253166D01*
X128741619Y-125586500D02*
X129741619Y-125586500D01*
X129265428Y-125586500D02*
X129265428Y-126157928D01*
X128741619Y-126157928D02*
X129741619Y-126157928D01*
X128836857Y-127205547D02*
X128789238Y-127157928D01*
X128789238Y-127157928D02*
X128741619Y-127015071D01*
X128741619Y-127015071D02*
X128741619Y-126919833D01*
X128741619Y-126919833D02*
X128789238Y-126776976D01*
X128789238Y-126776976D02*
X128884476Y-126681738D01*
X128884476Y-126681738D02*
X128979714Y-126634119D01*
X128979714Y-126634119D02*
X129170190Y-126586500D01*
X129170190Y-126586500D02*
X129313047Y-126586500D01*
X129313047Y-126586500D02*
X129503523Y-126634119D01*
X129503523Y-126634119D02*
X129598761Y-126681738D01*
X129598761Y-126681738D02*
X129694000Y-126776976D01*
X129694000Y-126776976D02*
X129741619Y-126919833D01*
X129741619Y-126919833D02*
X129741619Y-127015071D01*
X129741619Y-127015071D02*
X129694000Y-127157928D01*
X129694000Y-127157928D02*
X129646380Y-127205547D01*
X129741619Y-128110309D02*
X129741619Y-127634119D01*
X129741619Y-127634119D02*
X129265428Y-127586500D01*
X129265428Y-127586500D02*
X129313047Y-127634119D01*
X129313047Y-127634119D02*
X129360666Y-127729357D01*
X129360666Y-127729357D02*
X129360666Y-127967452D01*
X129360666Y-127967452D02*
X129313047Y-128062690D01*
X129313047Y-128062690D02*
X129265428Y-128110309D01*
X129265428Y-128110309D02*
X129170190Y-128157928D01*
X129170190Y-128157928D02*
X128932095Y-128157928D01*
X128932095Y-128157928D02*
X128836857Y-128110309D01*
X128836857Y-128110309D02*
X128789238Y-128062690D01*
X128789238Y-128062690D02*
X128741619Y-127967452D01*
X128741619Y-127967452D02*
X128741619Y-127729357D01*
X128741619Y-127729357D02*
X128789238Y-127634119D01*
X128789238Y-127634119D02*
X128836857Y-127586500D01*
X128741619Y-128634119D02*
X128741619Y-128824595D01*
X128741619Y-128824595D02*
X128789238Y-128919833D01*
X128789238Y-128919833D02*
X128836857Y-128967452D01*
X128836857Y-128967452D02*
X128979714Y-129062690D01*
X128979714Y-129062690D02*
X129170190Y-129110309D01*
X129170190Y-129110309D02*
X129551142Y-129110309D01*
X129551142Y-129110309D02*
X129646380Y-129062690D01*
X129646380Y-129062690D02*
X129694000Y-129015071D01*
X129694000Y-129015071D02*
X129741619Y-128919833D01*
X129741619Y-128919833D02*
X129741619Y-128729357D01*
X129741619Y-128729357D02*
X129694000Y-128634119D01*
X129694000Y-128634119D02*
X129646380Y-128586500D01*
X129646380Y-128586500D02*
X129551142Y-128538881D01*
X129551142Y-128538881D02*
X129313047Y-128538881D01*
X129313047Y-128538881D02*
X129217809Y-128586500D01*
X129217809Y-128586500D02*
X129170190Y-128634119D01*
X129170190Y-128634119D02*
X129122571Y-128729357D01*
X129122571Y-128729357D02*
X129122571Y-128919833D01*
X129122571Y-128919833D02*
X129170190Y-129015071D01*
X129170190Y-129015071D02*
X129217809Y-129062690D01*
X129217809Y-129062690D02*
X129313047Y-129110309D01*
X129741619Y-130015071D02*
X129741619Y-129538881D01*
X129741619Y-129538881D02*
X129265428Y-129491262D01*
X129265428Y-129491262D02*
X129313047Y-129538881D01*
X129313047Y-129538881D02*
X129360666Y-129634119D01*
X129360666Y-129634119D02*
X129360666Y-129872214D01*
X129360666Y-129872214D02*
X129313047Y-129967452D01*
X129313047Y-129967452D02*
X129265428Y-130015071D01*
X129265428Y-130015071D02*
X129170190Y-130062690D01*
X129170190Y-130062690D02*
X128932095Y-130062690D01*
X128932095Y-130062690D02*
X128836857Y-130015071D01*
X128836857Y-130015071D02*
X128789238Y-129967452D01*
X128789238Y-129967452D02*
X128741619Y-129872214D01*
X128741619Y-129872214D02*
X128741619Y-129634119D01*
X128741619Y-129634119D02*
X128789238Y-129538881D01*
X128789238Y-129538881D02*
X128836857Y-129491262D01*
D12*
X148462952Y-137781500D02*
X148415333Y-137757690D01*
X148415333Y-137757690D02*
X148343904Y-137757690D01*
X148343904Y-137757690D02*
X148272476Y-137781500D01*
X148272476Y-137781500D02*
X148224857Y-137829119D01*
X148224857Y-137829119D02*
X148201047Y-137876738D01*
X148201047Y-137876738D02*
X148177238Y-137971976D01*
X148177238Y-137971976D02*
X148177238Y-138043404D01*
X148177238Y-138043404D02*
X148201047Y-138138642D01*
X148201047Y-138138642D02*
X148224857Y-138186261D01*
X148224857Y-138186261D02*
X148272476Y-138233880D01*
X148272476Y-138233880D02*
X148343904Y-138257690D01*
X148343904Y-138257690D02*
X148391523Y-138257690D01*
X148391523Y-138257690D02*
X148462952Y-138233880D01*
X148462952Y-138233880D02*
X148486761Y-138210071D01*
X148486761Y-138210071D02*
X148486761Y-138043404D01*
X148486761Y-138043404D02*
X148391523Y-138043404D01*
X148701047Y-138257690D02*
X148701047Y-137757690D01*
X148701047Y-137757690D02*
X148986761Y-138257690D01*
X148986761Y-138257690D02*
X148986761Y-137757690D01*
X149224857Y-138257690D02*
X149224857Y-137757690D01*
X149224857Y-137757690D02*
X149343905Y-137757690D01*
X149343905Y-137757690D02*
X149415333Y-137781500D01*
X149415333Y-137781500D02*
X149462952Y-137829119D01*
X149462952Y-137829119D02*
X149486762Y-137876738D01*
X149486762Y-137876738D02*
X149510571Y-137971976D01*
X149510571Y-137971976D02*
X149510571Y-138043404D01*
X149510571Y-138043404D02*
X149486762Y-138138642D01*
X149486762Y-138138642D02*
X149462952Y-138186261D01*
X149462952Y-138186261D02*
X149415333Y-138233880D01*
X149415333Y-138233880D02*
X149343905Y-138257690D01*
X149343905Y-138257690D02*
X149224857Y-138257690D01*
D13*
X128789238Y-73024976D02*
X128741619Y-73167833D01*
X128741619Y-73167833D02*
X128741619Y-73405928D01*
X128741619Y-73405928D02*
X128789238Y-73501166D01*
X128789238Y-73501166D02*
X128836857Y-73548785D01*
X128836857Y-73548785D02*
X128932095Y-73596404D01*
X128932095Y-73596404D02*
X129027333Y-73596404D01*
X129027333Y-73596404D02*
X129122571Y-73548785D01*
X129122571Y-73548785D02*
X129170190Y-73501166D01*
X129170190Y-73501166D02*
X129217809Y-73405928D01*
X129217809Y-73405928D02*
X129265428Y-73215452D01*
X129265428Y-73215452D02*
X129313047Y-73120214D01*
X129313047Y-73120214D02*
X129360666Y-73072595D01*
X129360666Y-73072595D02*
X129455904Y-73024976D01*
X129455904Y-73024976D02*
X129551142Y-73024976D01*
X129551142Y-73024976D02*
X129646380Y-73072595D01*
X129646380Y-73072595D02*
X129694000Y-73120214D01*
X129694000Y-73120214D02*
X129741619Y-73215452D01*
X129741619Y-73215452D02*
X129741619Y-73453547D01*
X129741619Y-73453547D02*
X129694000Y-73596404D01*
X128741619Y-74024976D02*
X129741619Y-74024976D01*
X129741619Y-74024976D02*
X128741619Y-74596404D01*
X128741619Y-74596404D02*
X129741619Y-74596404D01*
X129741619Y-74977357D02*
X129741619Y-75644023D01*
X129741619Y-75644023D02*
X128741619Y-75215452D01*
X129408285Y-76453547D02*
X128741619Y-76453547D01*
X129789238Y-76215452D02*
X129074952Y-75977357D01*
X129074952Y-75977357D02*
X129074952Y-76596404D01*
X129027333Y-76929738D02*
X129027333Y-77405928D01*
X128741619Y-76834500D02*
X129741619Y-77167833D01*
X129741619Y-77167833D02*
X128741619Y-77501166D01*
X128741619Y-77834500D02*
X129741619Y-77834500D01*
X129265428Y-77834500D02*
X129265428Y-78405928D01*
X128741619Y-78405928D02*
X129741619Y-78405928D01*
X128836857Y-79453547D02*
X128789238Y-79405928D01*
X128789238Y-79405928D02*
X128741619Y-79263071D01*
X128741619Y-79263071D02*
X128741619Y-79167833D01*
X128741619Y-79167833D02*
X128789238Y-79024976D01*
X128789238Y-79024976D02*
X128884476Y-78929738D01*
X128884476Y-78929738D02*
X128979714Y-78882119D01*
X128979714Y-78882119D02*
X129170190Y-78834500D01*
X129170190Y-78834500D02*
X129313047Y-78834500D01*
X129313047Y-78834500D02*
X129503523Y-78882119D01*
X129503523Y-78882119D02*
X129598761Y-78929738D01*
X129598761Y-78929738D02*
X129694000Y-79024976D01*
X129694000Y-79024976D02*
X129741619Y-79167833D01*
X129741619Y-79167833D02*
X129741619Y-79263071D01*
X129741619Y-79263071D02*
X129694000Y-79405928D01*
X129694000Y-79405928D02*
X129646380Y-79453547D01*
X129741619Y-80358309D02*
X129741619Y-79882119D01*
X129741619Y-79882119D02*
X129265428Y-79834500D01*
X129265428Y-79834500D02*
X129313047Y-79882119D01*
X129313047Y-79882119D02*
X129360666Y-79977357D01*
X129360666Y-79977357D02*
X129360666Y-80215452D01*
X129360666Y-80215452D02*
X129313047Y-80310690D01*
X129313047Y-80310690D02*
X129265428Y-80358309D01*
X129265428Y-80358309D02*
X129170190Y-80405928D01*
X129170190Y-80405928D02*
X128932095Y-80405928D01*
X128932095Y-80405928D02*
X128836857Y-80358309D01*
X128836857Y-80358309D02*
X128789238Y-80310690D01*
X128789238Y-80310690D02*
X128741619Y-80215452D01*
X128741619Y-80215452D02*
X128741619Y-79977357D01*
X128741619Y-79977357D02*
X128789238Y-79882119D01*
X128789238Y-79882119D02*
X128836857Y-79834500D01*
X128741619Y-80882119D02*
X128741619Y-81072595D01*
X128741619Y-81072595D02*
X128789238Y-81167833D01*
X128789238Y-81167833D02*
X128836857Y-81215452D01*
X128836857Y-81215452D02*
X128979714Y-81310690D01*
X128979714Y-81310690D02*
X129170190Y-81358309D01*
X129170190Y-81358309D02*
X129551142Y-81358309D01*
X129551142Y-81358309D02*
X129646380Y-81310690D01*
X129646380Y-81310690D02*
X129694000Y-81263071D01*
X129694000Y-81263071D02*
X129741619Y-81167833D01*
X129741619Y-81167833D02*
X129741619Y-80977357D01*
X129741619Y-80977357D02*
X129694000Y-80882119D01*
X129694000Y-80882119D02*
X129646380Y-80834500D01*
X129646380Y-80834500D02*
X129551142Y-80786881D01*
X129551142Y-80786881D02*
X129313047Y-80786881D01*
X129313047Y-80786881D02*
X129217809Y-80834500D01*
X129217809Y-80834500D02*
X129170190Y-80882119D01*
X129170190Y-80882119D02*
X129122571Y-80977357D01*
X129122571Y-80977357D02*
X129122571Y-81167833D01*
X129122571Y-81167833D02*
X129170190Y-81263071D01*
X129170190Y-81263071D02*
X129217809Y-81310690D01*
X129217809Y-81310690D02*
X129313047Y-81358309D01*
X129741619Y-82263071D02*
X129741619Y-81786881D01*
X129741619Y-81786881D02*
X129265428Y-81739262D01*
X129265428Y-81739262D02*
X129313047Y-81786881D01*
X129313047Y-81786881D02*
X129360666Y-81882119D01*
X129360666Y-81882119D02*
X129360666Y-82120214D01*
X129360666Y-82120214D02*
X129313047Y-82215452D01*
X129313047Y-82215452D02*
X129265428Y-82263071D01*
X129265428Y-82263071D02*
X129170190Y-82310690D01*
X129170190Y-82310690D02*
X128932095Y-82310690D01*
X128932095Y-82310690D02*
X128836857Y-82263071D01*
X128836857Y-82263071D02*
X128789238Y-82215452D01*
X128789238Y-82215452D02*
X128741619Y-82120214D01*
X128741619Y-82120214D02*
X128741619Y-81882119D01*
X128741619Y-81882119D02*
X128789238Y-81786881D01*
X128789238Y-81786881D02*
X128836857Y-81739262D01*
D10*
X125650523Y-154404880D02*
X125317190Y-153928690D01*
X125079095Y-154404880D02*
X125079095Y-153404880D01*
X125079095Y-153404880D02*
X125460047Y-153404880D01*
X125460047Y-153404880D02*
X125555285Y-153452500D01*
X125555285Y-153452500D02*
X125602904Y-153500119D01*
X125602904Y-153500119D02*
X125650523Y-153595357D01*
X125650523Y-153595357D02*
X125650523Y-153738214D01*
X125650523Y-153738214D02*
X125602904Y-153833452D01*
X125602904Y-153833452D02*
X125555285Y-153881071D01*
X125555285Y-153881071D02*
X125460047Y-153928690D01*
X125460047Y-153928690D02*
X125079095Y-153928690D01*
X125936238Y-153404880D02*
X126507666Y-153404880D01*
X126221952Y-154404880D02*
X126221952Y-153404880D01*
X127412428Y-154309642D02*
X127364809Y-154357261D01*
X127364809Y-154357261D02*
X127221952Y-154404880D01*
X127221952Y-154404880D02*
X127126714Y-154404880D01*
X127126714Y-154404880D02*
X126983857Y-154357261D01*
X126983857Y-154357261D02*
X126888619Y-154262023D01*
X126888619Y-154262023D02*
X126841000Y-154166785D01*
X126841000Y-154166785D02*
X126793381Y-153976309D01*
X126793381Y-153976309D02*
X126793381Y-153833452D01*
X126793381Y-153833452D02*
X126841000Y-153642976D01*
X126841000Y-153642976D02*
X126888619Y-153547738D01*
X126888619Y-153547738D02*
X126983857Y-153452500D01*
X126983857Y-153452500D02*
X127126714Y-153404880D01*
X127126714Y-153404880D02*
X127221952Y-153404880D01*
X127221952Y-153404880D02*
X127364809Y-153452500D01*
X127364809Y-153452500D02*
X127412428Y-153500119D01*
D13*
X128789238Y-96900976D02*
X128741619Y-97043833D01*
X128741619Y-97043833D02*
X128741619Y-97281928D01*
X128741619Y-97281928D02*
X128789238Y-97377166D01*
X128789238Y-97377166D02*
X128836857Y-97424785D01*
X128836857Y-97424785D02*
X128932095Y-97472404D01*
X128932095Y-97472404D02*
X129027333Y-97472404D01*
X129027333Y-97472404D02*
X129122571Y-97424785D01*
X129122571Y-97424785D02*
X129170190Y-97377166D01*
X129170190Y-97377166D02*
X129217809Y-97281928D01*
X129217809Y-97281928D02*
X129265428Y-97091452D01*
X129265428Y-97091452D02*
X129313047Y-96996214D01*
X129313047Y-96996214D02*
X129360666Y-96948595D01*
X129360666Y-96948595D02*
X129455904Y-96900976D01*
X129455904Y-96900976D02*
X129551142Y-96900976D01*
X129551142Y-96900976D02*
X129646380Y-96948595D01*
X129646380Y-96948595D02*
X129694000Y-96996214D01*
X129694000Y-96996214D02*
X129741619Y-97091452D01*
X129741619Y-97091452D02*
X129741619Y-97329547D01*
X129741619Y-97329547D02*
X129694000Y-97472404D01*
X128741619Y-97900976D02*
X129741619Y-97900976D01*
X129741619Y-97900976D02*
X128741619Y-98472404D01*
X128741619Y-98472404D02*
X129741619Y-98472404D01*
X129741619Y-98853357D02*
X129741619Y-99520023D01*
X129741619Y-99520023D02*
X128741619Y-99091452D01*
X129408285Y-100329547D02*
X128741619Y-100329547D01*
X129789238Y-100091452D02*
X129074952Y-99853357D01*
X129074952Y-99853357D02*
X129074952Y-100472404D01*
X129027333Y-100805738D02*
X129027333Y-101281928D01*
X128741619Y-100710500D02*
X129741619Y-101043833D01*
X129741619Y-101043833D02*
X128741619Y-101377166D01*
X128741619Y-101710500D02*
X129741619Y-101710500D01*
X129265428Y-101710500D02*
X129265428Y-102281928D01*
X128741619Y-102281928D02*
X129741619Y-102281928D01*
X128836857Y-103329547D02*
X128789238Y-103281928D01*
X128789238Y-103281928D02*
X128741619Y-103139071D01*
X128741619Y-103139071D02*
X128741619Y-103043833D01*
X128741619Y-103043833D02*
X128789238Y-102900976D01*
X128789238Y-102900976D02*
X128884476Y-102805738D01*
X128884476Y-102805738D02*
X128979714Y-102758119D01*
X128979714Y-102758119D02*
X129170190Y-102710500D01*
X129170190Y-102710500D02*
X129313047Y-102710500D01*
X129313047Y-102710500D02*
X129503523Y-102758119D01*
X129503523Y-102758119D02*
X129598761Y-102805738D01*
X129598761Y-102805738D02*
X129694000Y-102900976D01*
X129694000Y-102900976D02*
X129741619Y-103043833D01*
X129741619Y-103043833D02*
X129741619Y-103139071D01*
X129741619Y-103139071D02*
X129694000Y-103281928D01*
X129694000Y-103281928D02*
X129646380Y-103329547D01*
X129741619Y-104234309D02*
X129741619Y-103758119D01*
X129741619Y-103758119D02*
X129265428Y-103710500D01*
X129265428Y-103710500D02*
X129313047Y-103758119D01*
X129313047Y-103758119D02*
X129360666Y-103853357D01*
X129360666Y-103853357D02*
X129360666Y-104091452D01*
X129360666Y-104091452D02*
X129313047Y-104186690D01*
X129313047Y-104186690D02*
X129265428Y-104234309D01*
X129265428Y-104234309D02*
X129170190Y-104281928D01*
X129170190Y-104281928D02*
X128932095Y-104281928D01*
X128932095Y-104281928D02*
X128836857Y-104234309D01*
X128836857Y-104234309D02*
X128789238Y-104186690D01*
X128789238Y-104186690D02*
X128741619Y-104091452D01*
X128741619Y-104091452D02*
X128741619Y-103853357D01*
X128741619Y-103853357D02*
X128789238Y-103758119D01*
X128789238Y-103758119D02*
X128836857Y-103710500D01*
X128741619Y-104758119D02*
X128741619Y-104948595D01*
X128741619Y-104948595D02*
X128789238Y-105043833D01*
X128789238Y-105043833D02*
X128836857Y-105091452D01*
X128836857Y-105091452D02*
X128979714Y-105186690D01*
X128979714Y-105186690D02*
X129170190Y-105234309D01*
X129170190Y-105234309D02*
X129551142Y-105234309D01*
X129551142Y-105234309D02*
X129646380Y-105186690D01*
X129646380Y-105186690D02*
X129694000Y-105139071D01*
X129694000Y-105139071D02*
X129741619Y-105043833D01*
X129741619Y-105043833D02*
X129741619Y-104853357D01*
X129741619Y-104853357D02*
X129694000Y-104758119D01*
X129694000Y-104758119D02*
X129646380Y-104710500D01*
X129646380Y-104710500D02*
X129551142Y-104662881D01*
X129551142Y-104662881D02*
X129313047Y-104662881D01*
X129313047Y-104662881D02*
X129217809Y-104710500D01*
X129217809Y-104710500D02*
X129170190Y-104758119D01*
X129170190Y-104758119D02*
X129122571Y-104853357D01*
X129122571Y-104853357D02*
X129122571Y-105043833D01*
X129122571Y-105043833D02*
X129170190Y-105139071D01*
X129170190Y-105139071D02*
X129217809Y-105186690D01*
X129217809Y-105186690D02*
X129313047Y-105234309D01*
X129741619Y-106139071D02*
X129741619Y-105662881D01*
X129741619Y-105662881D02*
X129265428Y-105615262D01*
X129265428Y-105615262D02*
X129313047Y-105662881D01*
X129313047Y-105662881D02*
X129360666Y-105758119D01*
X129360666Y-105758119D02*
X129360666Y-105996214D01*
X129360666Y-105996214D02*
X129313047Y-106091452D01*
X129313047Y-106091452D02*
X129265428Y-106139071D01*
X129265428Y-106139071D02*
X129170190Y-106186690D01*
X129170190Y-106186690D02*
X128932095Y-106186690D01*
X128932095Y-106186690D02*
X128836857Y-106139071D01*
X128836857Y-106139071D02*
X128789238Y-106091452D01*
X128789238Y-106091452D02*
X128741619Y-105996214D01*
X128741619Y-105996214D02*
X128741619Y-105758119D01*
X128741619Y-105758119D02*
X128789238Y-105662881D01*
X128789238Y-105662881D02*
X128836857Y-105615262D01*
D10*
X122984071Y-66913071D02*
X122984071Y-66663071D01*
X122591214Y-66663071D02*
X123341214Y-66663071D01*
X123341214Y-66663071D02*
X123341214Y-67020214D01*
X122591214Y-67413071D02*
X122626928Y-67341642D01*
X122626928Y-67341642D02*
X122698357Y-67305928D01*
X122698357Y-67305928D02*
X123341214Y-67305928D01*
X122591214Y-67698785D02*
X123091214Y-67698785D01*
X123341214Y-67698785D02*
X123305500Y-67663071D01*
X123305500Y-67663071D02*
X123269785Y-67698785D01*
X123269785Y-67698785D02*
X123305500Y-67734499D01*
X123305500Y-67734499D02*
X123341214Y-67698785D01*
X123341214Y-67698785D02*
X123269785Y-67698785D01*
X123091214Y-68055928D02*
X122341214Y-68055928D01*
X123055500Y-68055928D02*
X123091214Y-68127357D01*
X123091214Y-68127357D02*
X123091214Y-68270214D01*
X123091214Y-68270214D02*
X123055500Y-68341642D01*
X123055500Y-68341642D02*
X123019785Y-68377357D01*
X123019785Y-68377357D02*
X122948357Y-68413071D01*
X122948357Y-68413071D02*
X122734071Y-68413071D01*
X122734071Y-68413071D02*
X122662642Y-68377357D01*
X122662642Y-68377357D02*
X122626928Y-68341642D01*
X122626928Y-68341642D02*
X122591214Y-68270214D01*
X122591214Y-68270214D02*
X122591214Y-68127357D01*
X122591214Y-68127357D02*
X122626928Y-68055928D01*
X122591214Y-68734499D02*
X123341214Y-68734499D01*
X123341214Y-68734499D02*
X123341214Y-68913070D01*
X123341214Y-68913070D02*
X123305500Y-69020213D01*
X123305500Y-69020213D02*
X123234071Y-69091642D01*
X123234071Y-69091642D02*
X123162642Y-69127356D01*
X123162642Y-69127356D02*
X123019785Y-69163070D01*
X123019785Y-69163070D02*
X122912642Y-69163070D01*
X122912642Y-69163070D02*
X122769785Y-69127356D01*
X122769785Y-69127356D02*
X122698357Y-69091642D01*
X122698357Y-69091642D02*
X122626928Y-69020213D01*
X122626928Y-69020213D02*
X122591214Y-68913070D01*
X122591214Y-68913070D02*
X122591214Y-68734499D01*
X122591214Y-69591642D02*
X122626928Y-69520213D01*
X122626928Y-69520213D02*
X122662642Y-69484499D01*
X122662642Y-69484499D02*
X122734071Y-69448785D01*
X122734071Y-69448785D02*
X122948357Y-69448785D01*
X122948357Y-69448785D02*
X123019785Y-69484499D01*
X123019785Y-69484499D02*
X123055500Y-69520213D01*
X123055500Y-69520213D02*
X123091214Y-69591642D01*
X123091214Y-69591642D02*
X123091214Y-69698785D01*
X123091214Y-69698785D02*
X123055500Y-69770213D01*
X123055500Y-69770213D02*
X123019785Y-69805928D01*
X123019785Y-69805928D02*
X122948357Y-69841642D01*
X122948357Y-69841642D02*
X122734071Y-69841642D01*
X122734071Y-69841642D02*
X122662642Y-69805928D01*
X122662642Y-69805928D02*
X122626928Y-69770213D01*
X122626928Y-69770213D02*
X122591214Y-69698785D01*
X122591214Y-69698785D02*
X122591214Y-69591642D01*
X123091214Y-70055927D02*
X123091214Y-70341641D01*
X123341214Y-70163070D02*
X122698357Y-70163070D01*
X122698357Y-70163070D02*
X122626928Y-70198784D01*
X122626928Y-70198784D02*
X122591214Y-70270213D01*
X122591214Y-70270213D02*
X122591214Y-70341641D01*
X122662642Y-71470212D02*
X122626928Y-71434498D01*
X122626928Y-71434498D02*
X122591214Y-71327355D01*
X122591214Y-71327355D02*
X122591214Y-71255927D01*
X122591214Y-71255927D02*
X122626928Y-71148784D01*
X122626928Y-71148784D02*
X122698357Y-71077355D01*
X122698357Y-71077355D02*
X122769785Y-71041641D01*
X122769785Y-71041641D02*
X122912642Y-71005927D01*
X122912642Y-71005927D02*
X123019785Y-71005927D01*
X123019785Y-71005927D02*
X123162642Y-71041641D01*
X123162642Y-71041641D02*
X123234071Y-71077355D01*
X123234071Y-71077355D02*
X123305500Y-71148784D01*
X123305500Y-71148784D02*
X123341214Y-71255927D01*
X123341214Y-71255927D02*
X123341214Y-71327355D01*
X123341214Y-71327355D02*
X123305500Y-71434498D01*
X123305500Y-71434498D02*
X123269785Y-71470212D01*
X122591214Y-71898784D02*
X122626928Y-71827355D01*
X122626928Y-71827355D02*
X122698357Y-71791641D01*
X122698357Y-71791641D02*
X123341214Y-71791641D01*
X122591214Y-72291641D02*
X122626928Y-72220212D01*
X122626928Y-72220212D02*
X122662642Y-72184498D01*
X122662642Y-72184498D02*
X122734071Y-72148784D01*
X122734071Y-72148784D02*
X122948357Y-72148784D01*
X122948357Y-72148784D02*
X123019785Y-72184498D01*
X123019785Y-72184498D02*
X123055500Y-72220212D01*
X123055500Y-72220212D02*
X123091214Y-72291641D01*
X123091214Y-72291641D02*
X123091214Y-72398784D01*
X123091214Y-72398784D02*
X123055500Y-72470212D01*
X123055500Y-72470212D02*
X123019785Y-72505927D01*
X123019785Y-72505927D02*
X122948357Y-72541641D01*
X122948357Y-72541641D02*
X122734071Y-72541641D01*
X122734071Y-72541641D02*
X122662642Y-72505927D01*
X122662642Y-72505927D02*
X122626928Y-72470212D01*
X122626928Y-72470212D02*
X122591214Y-72398784D01*
X122591214Y-72398784D02*
X122591214Y-72291641D01*
X122626928Y-73184498D02*
X122591214Y-73113069D01*
X122591214Y-73113069D02*
X122591214Y-72970212D01*
X122591214Y-72970212D02*
X122626928Y-72898783D01*
X122626928Y-72898783D02*
X122662642Y-72863069D01*
X122662642Y-72863069D02*
X122734071Y-72827355D01*
X122734071Y-72827355D02*
X122948357Y-72827355D01*
X122948357Y-72827355D02*
X123019785Y-72863069D01*
X123019785Y-72863069D02*
X123055500Y-72898783D01*
X123055500Y-72898783D02*
X123091214Y-72970212D01*
X123091214Y-72970212D02*
X123091214Y-73113069D01*
X123091214Y-73113069D02*
X123055500Y-73184498D01*
X122591214Y-73505926D02*
X123341214Y-73505926D01*
X122876928Y-73577355D02*
X122591214Y-73791640D01*
X123091214Y-73791640D02*
X122805500Y-73505926D01*
X122662642Y-74991640D02*
X122626928Y-74955926D01*
X122626928Y-74955926D02*
X122591214Y-74848783D01*
X122591214Y-74848783D02*
X122591214Y-74777355D01*
X122591214Y-74777355D02*
X122626928Y-74670212D01*
X122626928Y-74670212D02*
X122698357Y-74598783D01*
X122698357Y-74598783D02*
X122769785Y-74563069D01*
X122769785Y-74563069D02*
X122912642Y-74527355D01*
X122912642Y-74527355D02*
X123019785Y-74527355D01*
X123019785Y-74527355D02*
X123162642Y-74563069D01*
X123162642Y-74563069D02*
X123234071Y-74598783D01*
X123234071Y-74598783D02*
X123305500Y-74670212D01*
X123305500Y-74670212D02*
X123341214Y-74777355D01*
X123341214Y-74777355D02*
X123341214Y-74848783D01*
X123341214Y-74848783D02*
X123305500Y-74955926D01*
X123305500Y-74955926D02*
X123269785Y-74991640D01*
X122591214Y-75313069D02*
X123091214Y-75313069D01*
X122948357Y-75313069D02*
X123019785Y-75348783D01*
X123019785Y-75348783D02*
X123055500Y-75384498D01*
X123055500Y-75384498D02*
X123091214Y-75455926D01*
X123091214Y-75455926D02*
X123091214Y-75527355D01*
X122591214Y-75884498D02*
X122626928Y-75813069D01*
X122626928Y-75813069D02*
X122662642Y-75777355D01*
X122662642Y-75777355D02*
X122734071Y-75741641D01*
X122734071Y-75741641D02*
X122948357Y-75741641D01*
X122948357Y-75741641D02*
X123019785Y-75777355D01*
X123019785Y-75777355D02*
X123055500Y-75813069D01*
X123055500Y-75813069D02*
X123091214Y-75884498D01*
X123091214Y-75884498D02*
X123091214Y-75991641D01*
X123091214Y-75991641D02*
X123055500Y-76063069D01*
X123055500Y-76063069D02*
X123019785Y-76098784D01*
X123019785Y-76098784D02*
X122948357Y-76134498D01*
X122948357Y-76134498D02*
X122734071Y-76134498D01*
X122734071Y-76134498D02*
X122662642Y-76098784D01*
X122662642Y-76098784D02*
X122626928Y-76063069D01*
X122626928Y-76063069D02*
X122591214Y-75991641D01*
X122591214Y-75991641D02*
X122591214Y-75884498D01*
X123091214Y-76455926D02*
X122591214Y-76455926D01*
X123019785Y-76455926D02*
X123055500Y-76491640D01*
X123055500Y-76491640D02*
X123091214Y-76563069D01*
X123091214Y-76563069D02*
X123091214Y-76670212D01*
X123091214Y-76670212D02*
X123055500Y-76741640D01*
X123055500Y-76741640D02*
X122984071Y-76777355D01*
X122984071Y-76777355D02*
X122591214Y-76777355D01*
X123091214Y-77027354D02*
X123091214Y-77313068D01*
X123341214Y-77134497D02*
X122698357Y-77134497D01*
X122698357Y-77134497D02*
X122626928Y-77170211D01*
X122626928Y-77170211D02*
X122591214Y-77241640D01*
X122591214Y-77241640D02*
X122591214Y-77313068D01*
X122591214Y-77563068D02*
X123091214Y-77563068D01*
X122948357Y-77563068D02*
X123019785Y-77598782D01*
X123019785Y-77598782D02*
X123055500Y-77634497D01*
X123055500Y-77634497D02*
X123091214Y-77705925D01*
X123091214Y-77705925D02*
X123091214Y-77777354D01*
X122591214Y-78134497D02*
X122626928Y-78063068D01*
X122626928Y-78063068D02*
X122662642Y-78027354D01*
X122662642Y-78027354D02*
X122734071Y-77991640D01*
X122734071Y-77991640D02*
X122948357Y-77991640D01*
X122948357Y-77991640D02*
X123019785Y-78027354D01*
X123019785Y-78027354D02*
X123055500Y-78063068D01*
X123055500Y-78063068D02*
X123091214Y-78134497D01*
X123091214Y-78134497D02*
X123091214Y-78241640D01*
X123091214Y-78241640D02*
X123055500Y-78313068D01*
X123055500Y-78313068D02*
X123019785Y-78348783D01*
X123019785Y-78348783D02*
X122948357Y-78384497D01*
X122948357Y-78384497D02*
X122734071Y-78384497D01*
X122734071Y-78384497D02*
X122662642Y-78348783D01*
X122662642Y-78348783D02*
X122626928Y-78313068D01*
X122626928Y-78313068D02*
X122591214Y-78241640D01*
X122591214Y-78241640D02*
X122591214Y-78134497D01*
X122591214Y-78813068D02*
X122626928Y-78741639D01*
X122626928Y-78741639D02*
X122698357Y-78705925D01*
X122698357Y-78705925D02*
X123341214Y-78705925D01*
X122591214Y-79205925D02*
X122626928Y-79134496D01*
X122626928Y-79134496D02*
X122698357Y-79098782D01*
X122698357Y-79098782D02*
X123341214Y-79098782D01*
X122626928Y-79777353D02*
X122591214Y-79705925D01*
X122591214Y-79705925D02*
X122591214Y-79563068D01*
X122591214Y-79563068D02*
X122626928Y-79491639D01*
X122626928Y-79491639D02*
X122698357Y-79455925D01*
X122698357Y-79455925D02*
X122984071Y-79455925D01*
X122984071Y-79455925D02*
X123055500Y-79491639D01*
X123055500Y-79491639D02*
X123091214Y-79563068D01*
X123091214Y-79563068D02*
X123091214Y-79705925D01*
X123091214Y-79705925D02*
X123055500Y-79777353D01*
X123055500Y-79777353D02*
X122984071Y-79813068D01*
X122984071Y-79813068D02*
X122912642Y-79813068D01*
X122912642Y-79813068D02*
X122841214Y-79455925D01*
X122591214Y-80134496D02*
X123091214Y-80134496D01*
X122948357Y-80134496D02*
X123019785Y-80170210D01*
X123019785Y-80170210D02*
X123055500Y-80205925D01*
X123055500Y-80205925D02*
X123091214Y-80277353D01*
X123091214Y-80277353D02*
X123091214Y-80348782D01*
X122305500Y-81263068D02*
X122341214Y-81227353D01*
X122341214Y-81227353D02*
X122448357Y-81155925D01*
X122448357Y-81155925D02*
X122519785Y-81120211D01*
X122519785Y-81120211D02*
X122626928Y-81084496D01*
X122626928Y-81084496D02*
X122805500Y-81048782D01*
X122805500Y-81048782D02*
X122948357Y-81048782D01*
X122948357Y-81048782D02*
X123126928Y-81084496D01*
X123126928Y-81084496D02*
X123234071Y-81120211D01*
X123234071Y-81120211D02*
X123305500Y-81155925D01*
X123305500Y-81155925D02*
X123412642Y-81227353D01*
X123412642Y-81227353D02*
X123448357Y-81263068D01*
X122591214Y-81548782D02*
X123091214Y-81548782D01*
X122948357Y-81548782D02*
X123019785Y-81584496D01*
X123019785Y-81584496D02*
X123055500Y-81620211D01*
X123055500Y-81620211D02*
X123091214Y-81691639D01*
X123091214Y-81691639D02*
X123091214Y-81763068D01*
X122626928Y-82298782D02*
X122591214Y-82227354D01*
X122591214Y-82227354D02*
X122591214Y-82084497D01*
X122591214Y-82084497D02*
X122626928Y-82013068D01*
X122626928Y-82013068D02*
X122698357Y-81977354D01*
X122698357Y-81977354D02*
X122984071Y-81977354D01*
X122984071Y-81977354D02*
X123055500Y-82013068D01*
X123055500Y-82013068D02*
X123091214Y-82084497D01*
X123091214Y-82084497D02*
X123091214Y-82227354D01*
X123091214Y-82227354D02*
X123055500Y-82298782D01*
X123055500Y-82298782D02*
X122984071Y-82334497D01*
X122984071Y-82334497D02*
X122912642Y-82334497D01*
X122912642Y-82334497D02*
X122841214Y-81977354D01*
X123091214Y-82584496D02*
X122591214Y-82763068D01*
X122591214Y-82763068D02*
X123091214Y-82941639D01*
X122591214Y-84070211D02*
X122591214Y-83641640D01*
X122591214Y-83855925D02*
X123341214Y-83855925D01*
X123341214Y-83855925D02*
X123234071Y-83784497D01*
X123234071Y-83784497D02*
X123162642Y-83713068D01*
X123162642Y-83713068D02*
X123126928Y-83641640D01*
X122662642Y-84391640D02*
X122626928Y-84427354D01*
X122626928Y-84427354D02*
X122591214Y-84391640D01*
X122591214Y-84391640D02*
X122626928Y-84355926D01*
X122626928Y-84355926D02*
X122662642Y-84391640D01*
X122662642Y-84391640D02*
X122591214Y-84391640D01*
X123341214Y-84891640D02*
X123341214Y-84963069D01*
X123341214Y-84963069D02*
X123305500Y-85034497D01*
X123305500Y-85034497D02*
X123269785Y-85070212D01*
X123269785Y-85070212D02*
X123198357Y-85105926D01*
X123198357Y-85105926D02*
X123055500Y-85141640D01*
X123055500Y-85141640D02*
X122876928Y-85141640D01*
X122876928Y-85141640D02*
X122734071Y-85105926D01*
X122734071Y-85105926D02*
X122662642Y-85070212D01*
X122662642Y-85070212D02*
X122626928Y-85034497D01*
X122626928Y-85034497D02*
X122591214Y-84963069D01*
X122591214Y-84963069D02*
X122591214Y-84891640D01*
X122591214Y-84891640D02*
X122626928Y-84820212D01*
X122626928Y-84820212D02*
X122662642Y-84784497D01*
X122662642Y-84784497D02*
X122734071Y-84748783D01*
X122734071Y-84748783D02*
X122876928Y-84713069D01*
X122876928Y-84713069D02*
X123055500Y-84713069D01*
X123055500Y-84713069D02*
X123198357Y-84748783D01*
X123198357Y-84748783D02*
X123269785Y-84784497D01*
X123269785Y-84784497D02*
X123305500Y-84820212D01*
X123305500Y-84820212D02*
X123341214Y-84891640D01*
X122305500Y-85391640D02*
X122341214Y-85427355D01*
X122341214Y-85427355D02*
X122448357Y-85498783D01*
X122448357Y-85498783D02*
X122519785Y-85534498D01*
X122519785Y-85534498D02*
X122626928Y-85570212D01*
X122626928Y-85570212D02*
X122805500Y-85605926D01*
X122805500Y-85605926D02*
X122948357Y-85605926D01*
X122948357Y-85605926D02*
X123126928Y-85570212D01*
X123126928Y-85570212D02*
X123234071Y-85534498D01*
X123234071Y-85534498D02*
X123305500Y-85498783D01*
X123305500Y-85498783D02*
X123412642Y-85427355D01*
X123412642Y-85427355D02*
X123448357Y-85391640D01*
X122626928Y-85998783D02*
X122591214Y-85998783D01*
X122591214Y-85998783D02*
X122519785Y-85963069D01*
X122519785Y-85963069D02*
X122484071Y-85927355D01*
X122591214Y-86770212D02*
X123341214Y-86770212D01*
X123341214Y-86770212D02*
X123341214Y-86948783D01*
X123341214Y-86948783D02*
X123305500Y-87055926D01*
X123305500Y-87055926D02*
X123234071Y-87127355D01*
X123234071Y-87127355D02*
X123162642Y-87163069D01*
X123162642Y-87163069D02*
X123019785Y-87198783D01*
X123019785Y-87198783D02*
X122912642Y-87198783D01*
X122912642Y-87198783D02*
X122769785Y-87163069D01*
X122769785Y-87163069D02*
X122698357Y-87127355D01*
X122698357Y-87127355D02*
X122626928Y-87055926D01*
X122626928Y-87055926D02*
X122591214Y-86948783D01*
X122591214Y-86948783D02*
X122591214Y-86770212D01*
X122626928Y-87805926D02*
X122591214Y-87734498D01*
X122591214Y-87734498D02*
X122591214Y-87591641D01*
X122591214Y-87591641D02*
X122626928Y-87520212D01*
X122626928Y-87520212D02*
X122698357Y-87484498D01*
X122698357Y-87484498D02*
X122984071Y-87484498D01*
X122984071Y-87484498D02*
X123055500Y-87520212D01*
X123055500Y-87520212D02*
X123091214Y-87591641D01*
X123091214Y-87591641D02*
X123091214Y-87734498D01*
X123091214Y-87734498D02*
X123055500Y-87805926D01*
X123055500Y-87805926D02*
X122984071Y-87841641D01*
X122984071Y-87841641D02*
X122912642Y-87841641D01*
X122912642Y-87841641D02*
X122841214Y-87484498D01*
X122626928Y-88127355D02*
X122591214Y-88198783D01*
X122591214Y-88198783D02*
X122591214Y-88341640D01*
X122591214Y-88341640D02*
X122626928Y-88413069D01*
X122626928Y-88413069D02*
X122698357Y-88448783D01*
X122698357Y-88448783D02*
X122734071Y-88448783D01*
X122734071Y-88448783D02*
X122805500Y-88413069D01*
X122805500Y-88413069D02*
X122841214Y-88341640D01*
X122841214Y-88341640D02*
X122841214Y-88234498D01*
X122841214Y-88234498D02*
X122876928Y-88163069D01*
X122876928Y-88163069D02*
X122948357Y-88127355D01*
X122948357Y-88127355D02*
X122984071Y-88127355D01*
X122984071Y-88127355D02*
X123055500Y-88163069D01*
X123055500Y-88163069D02*
X123091214Y-88234498D01*
X123091214Y-88234498D02*
X123091214Y-88341640D01*
X123091214Y-88341640D02*
X123055500Y-88413069D01*
X122591214Y-88770212D02*
X123091214Y-88770212D01*
X123341214Y-88770212D02*
X123305500Y-88734498D01*
X123305500Y-88734498D02*
X123269785Y-88770212D01*
X123269785Y-88770212D02*
X123305500Y-88805926D01*
X123305500Y-88805926D02*
X123341214Y-88770212D01*
X123341214Y-88770212D02*
X123269785Y-88770212D01*
X123091214Y-89448784D02*
X122484071Y-89448784D01*
X122484071Y-89448784D02*
X122412642Y-89413069D01*
X122412642Y-89413069D02*
X122376928Y-89377355D01*
X122376928Y-89377355D02*
X122341214Y-89305926D01*
X122341214Y-89305926D02*
X122341214Y-89198784D01*
X122341214Y-89198784D02*
X122376928Y-89127355D01*
X122626928Y-89448784D02*
X122591214Y-89377355D01*
X122591214Y-89377355D02*
X122591214Y-89234498D01*
X122591214Y-89234498D02*
X122626928Y-89163069D01*
X122626928Y-89163069D02*
X122662642Y-89127355D01*
X122662642Y-89127355D02*
X122734071Y-89091641D01*
X122734071Y-89091641D02*
X122948357Y-89091641D01*
X122948357Y-89091641D02*
X123019785Y-89127355D01*
X123019785Y-89127355D02*
X123055500Y-89163069D01*
X123055500Y-89163069D02*
X123091214Y-89234498D01*
X123091214Y-89234498D02*
X123091214Y-89377355D01*
X123091214Y-89377355D02*
X123055500Y-89448784D01*
X123091214Y-89805926D02*
X122591214Y-89805926D01*
X123019785Y-89805926D02*
X123055500Y-89841640D01*
X123055500Y-89841640D02*
X123091214Y-89913069D01*
X123091214Y-89913069D02*
X123091214Y-90020212D01*
X123091214Y-90020212D02*
X123055500Y-90091640D01*
X123055500Y-90091640D02*
X122984071Y-90127355D01*
X122984071Y-90127355D02*
X122591214Y-90127355D01*
X122626928Y-90770211D02*
X122591214Y-90698783D01*
X122591214Y-90698783D02*
X122591214Y-90555926D01*
X122591214Y-90555926D02*
X122626928Y-90484497D01*
X122626928Y-90484497D02*
X122698357Y-90448783D01*
X122698357Y-90448783D02*
X122984071Y-90448783D01*
X122984071Y-90448783D02*
X123055500Y-90484497D01*
X123055500Y-90484497D02*
X123091214Y-90555926D01*
X123091214Y-90555926D02*
X123091214Y-90698783D01*
X123091214Y-90698783D02*
X123055500Y-90770211D01*
X123055500Y-90770211D02*
X122984071Y-90805926D01*
X122984071Y-90805926D02*
X122912642Y-90805926D01*
X122912642Y-90805926D02*
X122841214Y-90448783D01*
X122591214Y-91448783D02*
X123341214Y-91448783D01*
X122626928Y-91448783D02*
X122591214Y-91377354D01*
X122591214Y-91377354D02*
X122591214Y-91234497D01*
X122591214Y-91234497D02*
X122626928Y-91163068D01*
X122626928Y-91163068D02*
X122662642Y-91127354D01*
X122662642Y-91127354D02*
X122734071Y-91091640D01*
X122734071Y-91091640D02*
X122948357Y-91091640D01*
X122948357Y-91091640D02*
X123019785Y-91127354D01*
X123019785Y-91127354D02*
X123055500Y-91163068D01*
X123055500Y-91163068D02*
X123091214Y-91234497D01*
X123091214Y-91234497D02*
X123091214Y-91377354D01*
X123091214Y-91377354D02*
X123055500Y-91448783D01*
X122591214Y-92255925D02*
X123341214Y-92255925D01*
X123055500Y-92255925D02*
X123091214Y-92327354D01*
X123091214Y-92327354D02*
X123091214Y-92470211D01*
X123091214Y-92470211D02*
X123055500Y-92541639D01*
X123055500Y-92541639D02*
X123019785Y-92577354D01*
X123019785Y-92577354D02*
X122948357Y-92613068D01*
X122948357Y-92613068D02*
X122734071Y-92613068D01*
X122734071Y-92613068D02*
X122662642Y-92577354D01*
X122662642Y-92577354D02*
X122626928Y-92541639D01*
X122626928Y-92541639D02*
X122591214Y-92470211D01*
X122591214Y-92470211D02*
X122591214Y-92327354D01*
X122591214Y-92327354D02*
X122626928Y-92255925D01*
X123091214Y-92863067D02*
X122591214Y-93041639D01*
X123091214Y-93220210D02*
X122591214Y-93041639D01*
X122591214Y-93041639D02*
X122412642Y-92970210D01*
X122412642Y-92970210D02*
X122376928Y-92934496D01*
X122376928Y-92934496D02*
X122341214Y-92863067D01*
X123341214Y-93848782D02*
X123341214Y-94277354D01*
X122591214Y-94063068D02*
X123341214Y-94063068D01*
X123091214Y-94455925D02*
X122591214Y-94634497D01*
X123091214Y-94813068D02*
X122591214Y-94634497D01*
X122591214Y-94634497D02*
X122412642Y-94563068D01*
X122412642Y-94563068D02*
X122376928Y-94527354D01*
X122376928Y-94527354D02*
X122341214Y-94455925D01*
X122591214Y-95205926D02*
X122626928Y-95134497D01*
X122626928Y-95134497D02*
X122698357Y-95098783D01*
X122698357Y-95098783D02*
X123341214Y-95098783D01*
X122626928Y-95777354D02*
X122591214Y-95705926D01*
X122591214Y-95705926D02*
X122591214Y-95563069D01*
X122591214Y-95563069D02*
X122626928Y-95491640D01*
X122626928Y-95491640D02*
X122698357Y-95455926D01*
X122698357Y-95455926D02*
X122984071Y-95455926D01*
X122984071Y-95455926D02*
X123055500Y-95491640D01*
X123055500Y-95491640D02*
X123091214Y-95563069D01*
X123091214Y-95563069D02*
X123091214Y-95705926D01*
X123091214Y-95705926D02*
X123055500Y-95777354D01*
X123055500Y-95777354D02*
X122984071Y-95813069D01*
X122984071Y-95813069D02*
X122912642Y-95813069D01*
X122912642Y-95813069D02*
X122841214Y-95455926D01*
X122591214Y-96134497D02*
X123091214Y-96134497D01*
X122948357Y-96134497D02*
X123019785Y-96170211D01*
X123019785Y-96170211D02*
X123055500Y-96205926D01*
X123055500Y-96205926D02*
X123091214Y-96277354D01*
X123091214Y-96277354D02*
X123091214Y-96348783D01*
X122984071Y-97298783D02*
X122948357Y-97405926D01*
X122948357Y-97405926D02*
X122912642Y-97441640D01*
X122912642Y-97441640D02*
X122841214Y-97477354D01*
X122841214Y-97477354D02*
X122734071Y-97477354D01*
X122734071Y-97477354D02*
X122662642Y-97441640D01*
X122662642Y-97441640D02*
X122626928Y-97405926D01*
X122626928Y-97405926D02*
X122591214Y-97334497D01*
X122591214Y-97334497D02*
X122591214Y-97048783D01*
X122591214Y-97048783D02*
X123341214Y-97048783D01*
X123341214Y-97048783D02*
X123341214Y-97298783D01*
X123341214Y-97298783D02*
X123305500Y-97370212D01*
X123305500Y-97370212D02*
X123269785Y-97405926D01*
X123269785Y-97405926D02*
X123198357Y-97441640D01*
X123198357Y-97441640D02*
X123126928Y-97441640D01*
X123126928Y-97441640D02*
X123055500Y-97405926D01*
X123055500Y-97405926D02*
X123019785Y-97370212D01*
X123019785Y-97370212D02*
X122984071Y-97298783D01*
X122984071Y-97298783D02*
X122984071Y-97048783D01*
X122591214Y-97905926D02*
X122626928Y-97834497D01*
X122626928Y-97834497D02*
X122662642Y-97798783D01*
X122662642Y-97798783D02*
X122734071Y-97763069D01*
X122734071Y-97763069D02*
X122948357Y-97763069D01*
X122948357Y-97763069D02*
X123019785Y-97798783D01*
X123019785Y-97798783D02*
X123055500Y-97834497D01*
X123055500Y-97834497D02*
X123091214Y-97905926D01*
X123091214Y-97905926D02*
X123091214Y-98013069D01*
X123091214Y-98013069D02*
X123055500Y-98084497D01*
X123055500Y-98084497D02*
X123019785Y-98120212D01*
X123019785Y-98120212D02*
X122948357Y-98155926D01*
X122948357Y-98155926D02*
X122734071Y-98155926D01*
X122734071Y-98155926D02*
X122662642Y-98120212D01*
X122662642Y-98120212D02*
X122626928Y-98084497D01*
X122626928Y-98084497D02*
X122591214Y-98013069D01*
X122591214Y-98013069D02*
X122591214Y-97905926D01*
X123091214Y-98405925D02*
X122591214Y-98548783D01*
X122591214Y-98548783D02*
X122948357Y-98691640D01*
X122948357Y-98691640D02*
X122591214Y-98834497D01*
X122591214Y-98834497D02*
X123091214Y-98977354D01*
X122626928Y-99548782D02*
X122591214Y-99477354D01*
X122591214Y-99477354D02*
X122591214Y-99334497D01*
X122591214Y-99334497D02*
X122626928Y-99263068D01*
X122626928Y-99263068D02*
X122698357Y-99227354D01*
X122698357Y-99227354D02*
X122984071Y-99227354D01*
X122984071Y-99227354D02*
X123055500Y-99263068D01*
X123055500Y-99263068D02*
X123091214Y-99334497D01*
X123091214Y-99334497D02*
X123091214Y-99477354D01*
X123091214Y-99477354D02*
X123055500Y-99548782D01*
X123055500Y-99548782D02*
X122984071Y-99584497D01*
X122984071Y-99584497D02*
X122912642Y-99584497D01*
X122912642Y-99584497D02*
X122841214Y-99227354D01*
X122591214Y-99905925D02*
X123091214Y-99905925D01*
X122948357Y-99905925D02*
X123019785Y-99941639D01*
X123019785Y-99941639D02*
X123055500Y-99977354D01*
X123055500Y-99977354D02*
X123091214Y-100048782D01*
X123091214Y-100048782D02*
X123091214Y-100120211D01*
X122626928Y-100334497D02*
X122591214Y-100405925D01*
X122591214Y-100405925D02*
X122591214Y-100548782D01*
X122591214Y-100548782D02*
X122626928Y-100620211D01*
X122626928Y-100620211D02*
X122698357Y-100655925D01*
X122698357Y-100655925D02*
X122734071Y-100655925D01*
X122734071Y-100655925D02*
X122805500Y-100620211D01*
X122805500Y-100620211D02*
X122841214Y-100548782D01*
X122841214Y-100548782D02*
X122841214Y-100441640D01*
X122841214Y-100441640D02*
X122876928Y-100370211D01*
X122876928Y-100370211D02*
X122948357Y-100334497D01*
X122948357Y-100334497D02*
X122984071Y-100334497D01*
X122984071Y-100334497D02*
X123055500Y-100370211D01*
X123055500Y-100370211D02*
X123091214Y-100441640D01*
X123091214Y-100441640D02*
X123091214Y-100548782D01*
X123091214Y-100548782D02*
X123055500Y-100620211D01*
X123269785Y-101391640D02*
X123305500Y-101427354D01*
X123305500Y-101427354D02*
X123341214Y-101498783D01*
X123341214Y-101498783D02*
X123341214Y-101677354D01*
X123341214Y-101677354D02*
X123305500Y-101748783D01*
X123305500Y-101748783D02*
X123269785Y-101784497D01*
X123269785Y-101784497D02*
X123198357Y-101820211D01*
X123198357Y-101820211D02*
X123126928Y-101820211D01*
X123126928Y-101820211D02*
X123019785Y-101784497D01*
X123019785Y-101784497D02*
X122591214Y-101355925D01*
X122591214Y-101355925D02*
X122591214Y-101820211D01*
X123341214Y-102284497D02*
X123341214Y-102355926D01*
X123341214Y-102355926D02*
X123305500Y-102427354D01*
X123305500Y-102427354D02*
X123269785Y-102463069D01*
X123269785Y-102463069D02*
X123198357Y-102498783D01*
X123198357Y-102498783D02*
X123055500Y-102534497D01*
X123055500Y-102534497D02*
X122876928Y-102534497D01*
X122876928Y-102534497D02*
X122734071Y-102498783D01*
X122734071Y-102498783D02*
X122662642Y-102463069D01*
X122662642Y-102463069D02*
X122626928Y-102427354D01*
X122626928Y-102427354D02*
X122591214Y-102355926D01*
X122591214Y-102355926D02*
X122591214Y-102284497D01*
X122591214Y-102284497D02*
X122626928Y-102213069D01*
X122626928Y-102213069D02*
X122662642Y-102177354D01*
X122662642Y-102177354D02*
X122734071Y-102141640D01*
X122734071Y-102141640D02*
X122876928Y-102105926D01*
X122876928Y-102105926D02*
X123055500Y-102105926D01*
X123055500Y-102105926D02*
X123198357Y-102141640D01*
X123198357Y-102141640D02*
X123269785Y-102177354D01*
X123269785Y-102177354D02*
X123305500Y-102213069D01*
X123305500Y-102213069D02*
X123341214Y-102284497D01*
X123269785Y-102820212D02*
X123305500Y-102855926D01*
X123305500Y-102855926D02*
X123341214Y-102927355D01*
X123341214Y-102927355D02*
X123341214Y-103105926D01*
X123341214Y-103105926D02*
X123305500Y-103177355D01*
X123305500Y-103177355D02*
X123269785Y-103213069D01*
X123269785Y-103213069D02*
X123198357Y-103248783D01*
X123198357Y-103248783D02*
X123126928Y-103248783D01*
X123126928Y-103248783D02*
X123019785Y-103213069D01*
X123019785Y-103213069D02*
X122591214Y-102784497D01*
X122591214Y-102784497D02*
X122591214Y-103248783D01*
X123341214Y-103498783D02*
X123341214Y-103963069D01*
X123341214Y-103963069D02*
X123055500Y-103713069D01*
X123055500Y-103713069D02*
X123055500Y-103820212D01*
X123055500Y-103820212D02*
X123019785Y-103891641D01*
X123019785Y-103891641D02*
X122984071Y-103927355D01*
X122984071Y-103927355D02*
X122912642Y-103963069D01*
X122912642Y-103963069D02*
X122734071Y-103963069D01*
X122734071Y-103963069D02*
X122662642Y-103927355D01*
X122662642Y-103927355D02*
X122626928Y-103891641D01*
X122626928Y-103891641D02*
X122591214Y-103820212D01*
X122591214Y-103820212D02*
X122591214Y-103605926D01*
X122591214Y-103605926D02*
X122626928Y-103534498D01*
X122626928Y-103534498D02*
X122662642Y-103498783D01*
X122626928Y-104320212D02*
X122591214Y-104320212D01*
X122591214Y-104320212D02*
X122519785Y-104284498D01*
X122519785Y-104284498D02*
X122484071Y-104248784D01*
X122591214Y-105091641D02*
X123341214Y-105091641D01*
X122591214Y-105770213D02*
X123341214Y-105770213D01*
X122626928Y-105770213D02*
X122591214Y-105698784D01*
X122591214Y-105698784D02*
X122591214Y-105555927D01*
X122591214Y-105555927D02*
X122626928Y-105484498D01*
X122626928Y-105484498D02*
X122662642Y-105448784D01*
X122662642Y-105448784D02*
X122734071Y-105413070D01*
X122734071Y-105413070D02*
X122948357Y-105413070D01*
X122948357Y-105413070D02*
X123019785Y-105448784D01*
X123019785Y-105448784D02*
X123055500Y-105484498D01*
X123055500Y-105484498D02*
X123091214Y-105555927D01*
X123091214Y-105555927D02*
X123091214Y-105698784D01*
X123091214Y-105698784D02*
X123055500Y-105770213D01*
X122626928Y-106413069D02*
X122591214Y-106341641D01*
X122591214Y-106341641D02*
X122591214Y-106198784D01*
X122591214Y-106198784D02*
X122626928Y-106127355D01*
X122626928Y-106127355D02*
X122698357Y-106091641D01*
X122698357Y-106091641D02*
X122984071Y-106091641D01*
X122984071Y-106091641D02*
X123055500Y-106127355D01*
X123055500Y-106127355D02*
X123091214Y-106198784D01*
X123091214Y-106198784D02*
X123091214Y-106341641D01*
X123091214Y-106341641D02*
X123055500Y-106413069D01*
X123055500Y-106413069D02*
X122984071Y-106448784D01*
X122984071Y-106448784D02*
X122912642Y-106448784D01*
X122912642Y-106448784D02*
X122841214Y-106091641D01*
X122591214Y-107091641D02*
X122984071Y-107091641D01*
X122984071Y-107091641D02*
X123055500Y-107055926D01*
X123055500Y-107055926D02*
X123091214Y-106984498D01*
X123091214Y-106984498D02*
X123091214Y-106841641D01*
X123091214Y-106841641D02*
X123055500Y-106770212D01*
X122626928Y-107091641D02*
X122591214Y-107020212D01*
X122591214Y-107020212D02*
X122591214Y-106841641D01*
X122591214Y-106841641D02*
X122626928Y-106770212D01*
X122626928Y-106770212D02*
X122698357Y-106734498D01*
X122698357Y-106734498D02*
X122769785Y-106734498D01*
X122769785Y-106734498D02*
X122841214Y-106770212D01*
X122841214Y-106770212D02*
X122876928Y-106841641D01*
X122876928Y-106841641D02*
X122876928Y-107020212D01*
X122876928Y-107020212D02*
X122912642Y-107091641D01*
X122591214Y-107898783D02*
X123341214Y-107898783D01*
X123055500Y-107898783D02*
X123091214Y-107970212D01*
X123091214Y-107970212D02*
X123091214Y-108113069D01*
X123091214Y-108113069D02*
X123055500Y-108184497D01*
X123055500Y-108184497D02*
X123019785Y-108220212D01*
X123019785Y-108220212D02*
X122948357Y-108255926D01*
X122948357Y-108255926D02*
X122734071Y-108255926D01*
X122734071Y-108255926D02*
X122662642Y-108220212D01*
X122662642Y-108220212D02*
X122626928Y-108184497D01*
X122626928Y-108184497D02*
X122591214Y-108113069D01*
X122591214Y-108113069D02*
X122591214Y-107970212D01*
X122591214Y-107970212D02*
X122626928Y-107898783D01*
X123091214Y-108505925D02*
X122591214Y-108684497D01*
X123091214Y-108863068D02*
X122591214Y-108684497D01*
X122591214Y-108684497D02*
X122412642Y-108613068D01*
X122412642Y-108613068D02*
X122376928Y-108577354D01*
X122376928Y-108577354D02*
X122341214Y-108505925D01*
X122984071Y-109598783D02*
X122984071Y-109848783D01*
X122591214Y-109955926D02*
X122591214Y-109598783D01*
X122591214Y-109598783D02*
X123341214Y-109598783D01*
X123341214Y-109598783D02*
X123341214Y-109955926D01*
X122591214Y-110384497D02*
X122626928Y-110313068D01*
X122626928Y-110313068D02*
X122698357Y-110277354D01*
X122698357Y-110277354D02*
X123341214Y-110277354D01*
X122591214Y-110670211D02*
X123091214Y-110670211D01*
X123341214Y-110670211D02*
X123305500Y-110634497D01*
X123305500Y-110634497D02*
X123269785Y-110670211D01*
X123269785Y-110670211D02*
X123305500Y-110705925D01*
X123305500Y-110705925D02*
X123341214Y-110670211D01*
X123341214Y-110670211D02*
X123269785Y-110670211D01*
X123091214Y-110955925D02*
X123091214Y-111348783D01*
X123091214Y-111348783D02*
X122591214Y-110955925D01*
X122591214Y-110955925D02*
X122591214Y-111348783D01*
X122591214Y-111955926D02*
X122984071Y-111955926D01*
X122984071Y-111955926D02*
X123055500Y-111920211D01*
X123055500Y-111920211D02*
X123091214Y-111848783D01*
X123091214Y-111848783D02*
X123091214Y-111705926D01*
X123091214Y-111705926D02*
X123055500Y-111634497D01*
X122626928Y-111955926D02*
X122591214Y-111884497D01*
X122591214Y-111884497D02*
X122591214Y-111705926D01*
X122591214Y-111705926D02*
X122626928Y-111634497D01*
X122626928Y-111634497D02*
X122698357Y-111598783D01*
X122698357Y-111598783D02*
X122769785Y-111598783D01*
X122769785Y-111598783D02*
X122841214Y-111634497D01*
X122841214Y-111634497D02*
X122876928Y-111705926D01*
X122876928Y-111705926D02*
X122876928Y-111884497D01*
X122876928Y-111884497D02*
X122912642Y-111955926D01*
X122591214Y-112313068D02*
X123341214Y-112313068D01*
X123055500Y-112313068D02*
X123091214Y-112384497D01*
X123091214Y-112384497D02*
X123091214Y-112527354D01*
X123091214Y-112527354D02*
X123055500Y-112598782D01*
X123055500Y-112598782D02*
X123019785Y-112634497D01*
X123019785Y-112634497D02*
X122948357Y-112670211D01*
X122948357Y-112670211D02*
X122734071Y-112670211D01*
X122734071Y-112670211D02*
X122662642Y-112634497D01*
X122662642Y-112634497D02*
X122626928Y-112598782D01*
X122626928Y-112598782D02*
X122591214Y-112527354D01*
X122591214Y-112527354D02*
X122591214Y-112384497D01*
X122591214Y-112384497D02*
X122626928Y-112313068D01*
X122626928Y-113277353D02*
X122591214Y-113205925D01*
X122591214Y-113205925D02*
X122591214Y-113063068D01*
X122591214Y-113063068D02*
X122626928Y-112991639D01*
X122626928Y-112991639D02*
X122698357Y-112955925D01*
X122698357Y-112955925D02*
X122984071Y-112955925D01*
X122984071Y-112955925D02*
X123055500Y-112991639D01*
X123055500Y-112991639D02*
X123091214Y-113063068D01*
X123091214Y-113063068D02*
X123091214Y-113205925D01*
X123091214Y-113205925D02*
X123055500Y-113277353D01*
X123055500Y-113277353D02*
X122984071Y-113313068D01*
X122984071Y-113313068D02*
X122912642Y-113313068D01*
X122912642Y-113313068D02*
X122841214Y-112955925D01*
X123091214Y-113527353D02*
X123091214Y-113813067D01*
X123341214Y-113634496D02*
X122698357Y-113634496D01*
X122698357Y-113634496D02*
X122626928Y-113670210D01*
X122626928Y-113670210D02*
X122591214Y-113741639D01*
X122591214Y-113741639D02*
X122591214Y-113813067D01*
X122591214Y-114063067D02*
X123341214Y-114063067D01*
X122591214Y-114384496D02*
X122984071Y-114384496D01*
X122984071Y-114384496D02*
X123055500Y-114348781D01*
X123055500Y-114348781D02*
X123091214Y-114277353D01*
X123091214Y-114277353D02*
X123091214Y-114170210D01*
X123091214Y-114170210D02*
X123055500Y-114098781D01*
X123055500Y-114098781D02*
X123019785Y-114063067D01*
X123341214Y-115405924D02*
X122805500Y-115405924D01*
X122805500Y-115405924D02*
X122698357Y-115370209D01*
X122698357Y-115370209D02*
X122626928Y-115298781D01*
X122626928Y-115298781D02*
X122591214Y-115191638D01*
X122591214Y-115191638D02*
X122591214Y-115120209D01*
X122591214Y-115870210D02*
X122626928Y-115798781D01*
X122626928Y-115798781D02*
X122662642Y-115763067D01*
X122662642Y-115763067D02*
X122734071Y-115727353D01*
X122734071Y-115727353D02*
X122948357Y-115727353D01*
X122948357Y-115727353D02*
X123019785Y-115763067D01*
X123019785Y-115763067D02*
X123055500Y-115798781D01*
X123055500Y-115798781D02*
X123091214Y-115870210D01*
X123091214Y-115870210D02*
X123091214Y-115977353D01*
X123091214Y-115977353D02*
X123055500Y-116048781D01*
X123055500Y-116048781D02*
X123019785Y-116084496D01*
X123019785Y-116084496D02*
X122948357Y-116120210D01*
X122948357Y-116120210D02*
X122734071Y-116120210D01*
X122734071Y-116120210D02*
X122662642Y-116084496D01*
X122662642Y-116084496D02*
X122626928Y-116048781D01*
X122626928Y-116048781D02*
X122591214Y-115977353D01*
X122591214Y-115977353D02*
X122591214Y-115870210D01*
X122591214Y-116441638D02*
X123341214Y-116441638D01*
X122591214Y-116763067D02*
X122984071Y-116763067D01*
X122984071Y-116763067D02*
X123055500Y-116727352D01*
X123055500Y-116727352D02*
X123091214Y-116655924D01*
X123091214Y-116655924D02*
X123091214Y-116548781D01*
X123091214Y-116548781D02*
X123055500Y-116477352D01*
X123055500Y-116477352D02*
X123019785Y-116441638D01*
X123091214Y-117120209D02*
X122591214Y-117120209D01*
X123019785Y-117120209D02*
X123055500Y-117155923D01*
X123055500Y-117155923D02*
X123091214Y-117227352D01*
X123091214Y-117227352D02*
X123091214Y-117334495D01*
X123091214Y-117334495D02*
X123055500Y-117405923D01*
X123055500Y-117405923D02*
X122984071Y-117441638D01*
X122984071Y-117441638D02*
X122591214Y-117441638D01*
X122626928Y-117763066D02*
X122591214Y-117834494D01*
X122591214Y-117834494D02*
X122591214Y-117977351D01*
X122591214Y-117977351D02*
X122626928Y-118048780D01*
X122626928Y-118048780D02*
X122698357Y-118084494D01*
X122698357Y-118084494D02*
X122734071Y-118084494D01*
X122734071Y-118084494D02*
X122805500Y-118048780D01*
X122805500Y-118048780D02*
X122841214Y-117977351D01*
X122841214Y-117977351D02*
X122841214Y-117870209D01*
X122841214Y-117870209D02*
X122876928Y-117798780D01*
X122876928Y-117798780D02*
X122948357Y-117763066D01*
X122948357Y-117763066D02*
X122984071Y-117763066D01*
X122984071Y-117763066D02*
X123055500Y-117798780D01*
X123055500Y-117798780D02*
X123091214Y-117870209D01*
X123091214Y-117870209D02*
X123091214Y-117977351D01*
X123091214Y-117977351D02*
X123055500Y-118048780D01*
X122591214Y-118513066D02*
X122626928Y-118441637D01*
X122626928Y-118441637D02*
X122662642Y-118405923D01*
X122662642Y-118405923D02*
X122734071Y-118370209D01*
X122734071Y-118370209D02*
X122948357Y-118370209D01*
X122948357Y-118370209D02*
X123019785Y-118405923D01*
X123019785Y-118405923D02*
X123055500Y-118441637D01*
X123055500Y-118441637D02*
X123091214Y-118513066D01*
X123091214Y-118513066D02*
X123091214Y-118620209D01*
X123091214Y-118620209D02*
X123055500Y-118691637D01*
X123055500Y-118691637D02*
X123019785Y-118727352D01*
X123019785Y-118727352D02*
X122948357Y-118763066D01*
X122948357Y-118763066D02*
X122734071Y-118763066D01*
X122734071Y-118763066D02*
X122662642Y-118727352D01*
X122662642Y-118727352D02*
X122626928Y-118691637D01*
X122626928Y-118691637D02*
X122591214Y-118620209D01*
X122591214Y-118620209D02*
X122591214Y-118513066D01*
X123091214Y-119084494D02*
X122591214Y-119084494D01*
X123019785Y-119084494D02*
X123055500Y-119120208D01*
X123055500Y-119120208D02*
X123091214Y-119191637D01*
X123091214Y-119191637D02*
X123091214Y-119298780D01*
X123091214Y-119298780D02*
X123055500Y-119370208D01*
X123055500Y-119370208D02*
X122984071Y-119405923D01*
X122984071Y-119405923D02*
X122591214Y-119405923D01*
%TO.C,*%
%TO.C,REF\u002A\u002A*%
X139969904Y-175160119D02*
X139969904Y-176160119D01*
X139969904Y-176160119D02*
X139731809Y-176160119D01*
X139731809Y-176160119D02*
X139588952Y-176112500D01*
X139588952Y-176112500D02*
X139493714Y-176017261D01*
X139493714Y-176017261D02*
X139446095Y-175922023D01*
X139446095Y-175922023D02*
X139398476Y-175731547D01*
X139398476Y-175731547D02*
X139398476Y-175588690D01*
X139398476Y-175588690D02*
X139446095Y-175398214D01*
X139446095Y-175398214D02*
X139493714Y-175302976D01*
X139493714Y-175302976D02*
X139588952Y-175207738D01*
X139588952Y-175207738D02*
X139731809Y-175160119D01*
X139731809Y-175160119D02*
X139969904Y-175160119D01*
X139017523Y-175207738D02*
X138874666Y-175160119D01*
X138874666Y-175160119D02*
X138636571Y-175160119D01*
X138636571Y-175160119D02*
X138541333Y-175207738D01*
X138541333Y-175207738D02*
X138493714Y-175255357D01*
X138493714Y-175255357D02*
X138446095Y-175350595D01*
X138446095Y-175350595D02*
X138446095Y-175445833D01*
X138446095Y-175445833D02*
X138493714Y-175541071D01*
X138493714Y-175541071D02*
X138541333Y-175588690D01*
X138541333Y-175588690D02*
X138636571Y-175636309D01*
X138636571Y-175636309D02*
X138827047Y-175683928D01*
X138827047Y-175683928D02*
X138922285Y-175731547D01*
X138922285Y-175731547D02*
X138969904Y-175779166D01*
X138969904Y-175779166D02*
X139017523Y-175874404D01*
X139017523Y-175874404D02*
X139017523Y-175969642D01*
X139017523Y-175969642D02*
X138969904Y-176064880D01*
X138969904Y-176064880D02*
X138922285Y-176112500D01*
X138922285Y-176112500D02*
X138827047Y-176160119D01*
X138827047Y-176160119D02*
X138588952Y-176160119D01*
X138588952Y-176160119D02*
X138446095Y-176112500D01*
X138112761Y-176160119D02*
X137493714Y-176160119D01*
X137493714Y-176160119D02*
X137827047Y-175779166D01*
X137827047Y-175779166D02*
X137684190Y-175779166D01*
X137684190Y-175779166D02*
X137588952Y-175731547D01*
X137588952Y-175731547D02*
X137541333Y-175683928D01*
X137541333Y-175683928D02*
X137493714Y-175588690D01*
X137493714Y-175588690D02*
X137493714Y-175350595D01*
X137493714Y-175350595D02*
X137541333Y-175255357D01*
X137541333Y-175255357D02*
X137588952Y-175207738D01*
X137588952Y-175207738D02*
X137684190Y-175160119D01*
X137684190Y-175160119D02*
X137969904Y-175160119D01*
X137969904Y-175160119D02*
X138065142Y-175207738D01*
X138065142Y-175207738D02*
X138112761Y-175255357D01*
X137112761Y-176064880D02*
X137065142Y-176112500D01*
X137065142Y-176112500D02*
X136969904Y-176160119D01*
X136969904Y-176160119D02*
X136731809Y-176160119D01*
X136731809Y-176160119D02*
X136636571Y-176112500D01*
X136636571Y-176112500D02*
X136588952Y-176064880D01*
X136588952Y-176064880D02*
X136541333Y-175969642D01*
X136541333Y-175969642D02*
X136541333Y-175874404D01*
X136541333Y-175874404D02*
X136588952Y-175731547D01*
X136588952Y-175731547D02*
X137160380Y-175160119D01*
X137160380Y-175160119D02*
X136541333Y-175160119D01*
X136207999Y-176160119D02*
X135588952Y-176160119D01*
X135588952Y-176160119D02*
X135922285Y-175779166D01*
X135922285Y-175779166D02*
X135779428Y-175779166D01*
X135779428Y-175779166D02*
X135684190Y-175731547D01*
X135684190Y-175731547D02*
X135636571Y-175683928D01*
X135636571Y-175683928D02*
X135588952Y-175588690D01*
X135588952Y-175588690D02*
X135588952Y-175350595D01*
X135588952Y-175350595D02*
X135636571Y-175255357D01*
X135636571Y-175255357D02*
X135684190Y-175207738D01*
X135684190Y-175207738D02*
X135779428Y-175160119D01*
X135779428Y-175160119D02*
X136065142Y-175160119D01*
X136065142Y-175160119D02*
X136160380Y-175207738D01*
X136160380Y-175207738D02*
X136207999Y-175255357D01*
X134636571Y-175160119D02*
X135207999Y-175160119D01*
X134922285Y-175160119D02*
X134922285Y-176160119D01*
X134922285Y-176160119D02*
X135017523Y-176017261D01*
X135017523Y-176017261D02*
X135112761Y-175922023D01*
X135112761Y-175922023D02*
X135207999Y-175874404D01*
X133036571Y-175160119D02*
X133369904Y-175636309D01*
X133607999Y-175160119D02*
X133607999Y-176160119D01*
X133607999Y-176160119D02*
X133227047Y-176160119D01*
X133227047Y-176160119D02*
X133131809Y-176112500D01*
X133131809Y-176112500D02*
X133084190Y-176064880D01*
X133084190Y-176064880D02*
X133036571Y-175969642D01*
X133036571Y-175969642D02*
X133036571Y-175826785D01*
X133036571Y-175826785D02*
X133084190Y-175731547D01*
X133084190Y-175731547D02*
X133131809Y-175683928D01*
X133131809Y-175683928D02*
X133227047Y-175636309D01*
X133227047Y-175636309D02*
X133607999Y-175636309D01*
X132750856Y-176160119D02*
X132179428Y-176160119D01*
X132465142Y-175160119D02*
X132465142Y-176160119D01*
X131274666Y-175255357D02*
X131322285Y-175207738D01*
X131322285Y-175207738D02*
X131465142Y-175160119D01*
X131465142Y-175160119D02*
X131560380Y-175160119D01*
X131560380Y-175160119D02*
X131703237Y-175207738D01*
X131703237Y-175207738D02*
X131798475Y-175302976D01*
X131798475Y-175302976D02*
X131846094Y-175398214D01*
X131846094Y-175398214D02*
X131893713Y-175588690D01*
X131893713Y-175588690D02*
X131893713Y-175731547D01*
X131893713Y-175731547D02*
X131846094Y-175922023D01*
X131846094Y-175922023D02*
X131798475Y-176017261D01*
X131798475Y-176017261D02*
X131703237Y-176112500D01*
X131703237Y-176112500D02*
X131560380Y-176160119D01*
X131560380Y-176160119D02*
X131465142Y-176160119D01*
X131465142Y-176160119D02*
X131322285Y-176112500D01*
X131322285Y-176112500D02*
X131274666Y-176064880D01*
%TO.C,*%
D14*
%TO.C,REF\u002A\u002A*%
X124118000Y-66130500D02*
X124118000Y-66835500D01*
X124118000Y-66130500D02*
X128358000Y-66130500D01*
X124118000Y-68165500D02*
X124118000Y-68870500D01*
X124118000Y-68870500D02*
X128358000Y-68870500D01*
X128358000Y-66130500D02*
X128358000Y-66835500D01*
X128358000Y-68165500D02*
X128358000Y-68870500D01*
X147369000Y-151565275D02*
X147369000Y-151065275D01*
X147119000Y-151315275D02*
X147619000Y-151315275D01*
X146264000Y-148760500D02*
X151424000Y-148760500D01*
X146264000Y-148720500D02*
X151424000Y-148720500D01*
X146265000Y-148680500D02*
X151423000Y-148680500D01*
X146266000Y-148640500D02*
X151422000Y-148640500D01*
X146268000Y-148600500D02*
X151420000Y-148600500D01*
X146271000Y-148560500D02*
X151417000Y-148560500D01*
X146275000Y-148520500D02*
X147804000Y-148520500D01*
X149884000Y-148520500D02*
X151413000Y-148520500D01*
X146279000Y-148480500D02*
X147804000Y-148480500D01*
X149884000Y-148480500D02*
X151409000Y-148480500D01*
X146283000Y-148440500D02*
X147804000Y-148440500D01*
X149884000Y-148440500D02*
X151405000Y-148440500D01*
X146288000Y-148400500D02*
X147804000Y-148400500D01*
X149884000Y-148400500D02*
X151400000Y-148400500D01*
X146294000Y-148360500D02*
X147804000Y-148360500D01*
X149884000Y-148360500D02*
X151394000Y-148360500D01*
X146301000Y-148320500D02*
X147804000Y-148320500D01*
X149884000Y-148320500D02*
X151387000Y-148320500D01*
X146308000Y-148280500D02*
X147804000Y-148280500D01*
X149884000Y-148280500D02*
X151380000Y-148280500D01*
X146316000Y-148240500D02*
X147804000Y-148240500D01*
X149884000Y-148240500D02*
X151372000Y-148240500D01*
X146324000Y-148200500D02*
X147804000Y-148200500D01*
X149884000Y-148200500D02*
X151364000Y-148200500D01*
X146333000Y-148160500D02*
X147804000Y-148160500D01*
X149884000Y-148160500D02*
X151355000Y-148160500D01*
X146343000Y-148120500D02*
X147804000Y-148120500D01*
X149884000Y-148120500D02*
X151345000Y-148120500D01*
X146353000Y-148080500D02*
X147804000Y-148080500D01*
X149884000Y-148080500D02*
X151335000Y-148080500D01*
X146364000Y-148039500D02*
X147804000Y-148039500D01*
X149884000Y-148039500D02*
X151324000Y-148039500D01*
X146376000Y-147999500D02*
X147804000Y-147999500D01*
X149884000Y-147999500D02*
X151312000Y-147999500D01*
X146389000Y-147959500D02*
X147804000Y-147959500D01*
X149884000Y-147959500D02*
X151299000Y-147959500D01*
X146402000Y-147919500D02*
X147804000Y-147919500D01*
X149884000Y-147919500D02*
X151286000Y-147919500D01*
X146416000Y-147879500D02*
X147804000Y-147879500D01*
X149884000Y-147879500D02*
X151272000Y-147879500D01*
X146430000Y-147839500D02*
X147804000Y-147839500D01*
X149884000Y-147839500D02*
X151258000Y-147839500D01*
X146446000Y-147799500D02*
X147804000Y-147799500D01*
X149884000Y-147799500D02*
X151242000Y-147799500D01*
X146462000Y-147759500D02*
X147804000Y-147759500D01*
X149884000Y-147759500D02*
X151226000Y-147759500D01*
X146479000Y-147719500D02*
X147804000Y-147719500D01*
X149884000Y-147719500D02*
X151209000Y-147719500D01*
X146496000Y-147679500D02*
X147804000Y-147679500D01*
X149884000Y-147679500D02*
X151192000Y-147679500D01*
X146515000Y-147639500D02*
X147804000Y-147639500D01*
X149884000Y-147639500D02*
X151173000Y-147639500D01*
X146534000Y-147599500D02*
X147804000Y-147599500D01*
X149884000Y-147599500D02*
X151154000Y-147599500D01*
X146554000Y-147559500D02*
X147804000Y-147559500D01*
X149884000Y-147559500D02*
X151134000Y-147559500D01*
X146576000Y-147519500D02*
X147804000Y-147519500D01*
X149884000Y-147519500D02*
X151112000Y-147519500D01*
X146597000Y-147479500D02*
X147804000Y-147479500D01*
X149884000Y-147479500D02*
X151091000Y-147479500D01*
X146620000Y-147439500D02*
X147804000Y-147439500D01*
X149884000Y-147439500D02*
X151068000Y-147439500D01*
X146644000Y-147399500D02*
X147804000Y-147399500D01*
X149884000Y-147399500D02*
X151044000Y-147399500D01*
X146669000Y-147359500D02*
X147804000Y-147359500D01*
X149884000Y-147359500D02*
X151019000Y-147359500D01*
X146695000Y-147319500D02*
X147804000Y-147319500D01*
X149884000Y-147319500D02*
X150993000Y-147319500D01*
X146722000Y-147279500D02*
X147804000Y-147279500D01*
X149884000Y-147279500D02*
X150966000Y-147279500D01*
X146749000Y-147239500D02*
X147804000Y-147239500D01*
X149884000Y-147239500D02*
X150939000Y-147239500D01*
X146779000Y-147199500D02*
X147804000Y-147199500D01*
X149884000Y-147199500D02*
X150909000Y-147199500D01*
X146809000Y-147159500D02*
X147804000Y-147159500D01*
X149884000Y-147159500D02*
X150879000Y-147159500D01*
X146840000Y-147119500D02*
X147804000Y-147119500D01*
X149884000Y-147119500D02*
X150848000Y-147119500D01*
X146873000Y-147079500D02*
X147804000Y-147079500D01*
X149884000Y-147079500D02*
X150815000Y-147079500D01*
X146907000Y-147039500D02*
X147804000Y-147039500D01*
X149884000Y-147039500D02*
X150781000Y-147039500D01*
X146943000Y-146999500D02*
X147804000Y-146999500D01*
X149884000Y-146999500D02*
X150745000Y-146999500D01*
X146980000Y-146959500D02*
X147804000Y-146959500D01*
X149884000Y-146959500D02*
X150708000Y-146959500D01*
X147018000Y-146919500D02*
X147804000Y-146919500D01*
X149884000Y-146919500D02*
X150670000Y-146919500D01*
X147059000Y-146879500D02*
X147804000Y-146879500D01*
X149884000Y-146879500D02*
X150629000Y-146879500D01*
X147101000Y-146839500D02*
X147804000Y-146839500D01*
X149884000Y-146839500D02*
X150587000Y-146839500D01*
X147145000Y-146799500D02*
X147804000Y-146799500D01*
X149884000Y-146799500D02*
X150543000Y-146799500D01*
X147191000Y-146759500D02*
X147804000Y-146759500D01*
X149884000Y-146759500D02*
X150497000Y-146759500D01*
X147239000Y-146719500D02*
X147804000Y-146719500D01*
X149884000Y-146719500D02*
X150449000Y-146719500D01*
X147290000Y-146679500D02*
X147804000Y-146679500D01*
X149884000Y-146679500D02*
X150398000Y-146679500D01*
X147344000Y-146639500D02*
X147804000Y-146639500D01*
X149884000Y-146639500D02*
X150344000Y-146639500D01*
X147401000Y-146599500D02*
X147804000Y-146599500D01*
X149884000Y-146599500D02*
X150287000Y-146599500D01*
X147461000Y-146559500D02*
X147804000Y-146559500D01*
X149884000Y-146559500D02*
X150227000Y-146559500D01*
X147525000Y-146519500D02*
X147804000Y-146519500D01*
X149884000Y-146519500D02*
X150163000Y-146519500D01*
X147593000Y-146479500D02*
X147804000Y-146479500D01*
X149884000Y-146479500D02*
X150095000Y-146479500D01*
X147666000Y-146439500D02*
X150022000Y-146439500D01*
X147746000Y-146399500D02*
X149942000Y-146399500D01*
X147833000Y-146359500D02*
X149855000Y-146359500D01*
X147929000Y-146319500D02*
X149759000Y-146319500D01*
X148039000Y-146279500D02*
X149649000Y-146279500D01*
X148167000Y-146239500D02*
X149521000Y-146239500D01*
X148326000Y-146199500D02*
X149362000Y-146199500D01*
X148560000Y-146159500D02*
X149128000Y-146159500D01*
X151464000Y-148760500D02*
G75*
G03*
X151464000Y-148760500I-2620000J0D01*
G01*
X126174500Y-71528940D02*
X126174500Y-72185117D01*
X126174500Y-73991883D02*
X126174500Y-74725117D01*
X126174500Y-76531883D02*
X126174500Y-77265117D01*
X126174500Y-79071883D02*
X126174500Y-79805117D01*
X126174500Y-81611883D02*
X126174500Y-82345117D01*
X126174500Y-84151883D02*
X126174500Y-84885117D01*
X126174500Y-86691883D02*
X126174500Y-87425117D01*
X126174500Y-89231883D02*
X126174500Y-89408000D01*
X126174500Y-89408000D02*
X133032500Y-89408000D01*
X133032500Y-69469000D02*
X126174500Y-69469000D01*
X133032500Y-69645117D02*
X133032500Y-69469000D01*
X133032500Y-72185117D02*
X133032500Y-71451883D01*
X133032500Y-74725117D02*
X133032500Y-73991883D01*
X133032500Y-77265117D02*
X133032500Y-76531883D01*
X133032500Y-79805117D02*
X133032500Y-79071883D01*
X133032500Y-82345117D02*
X133032500Y-81611883D01*
X133032500Y-84885117D02*
X133032500Y-84151883D01*
X133032500Y-87425117D02*
X133032500Y-86691883D01*
X133032500Y-89408000D02*
X133032500Y-89231883D01*
D15*
X122936000Y-62928500D02*
X122936000Y-19748500D01*
X125476000Y-17208500D02*
X145796000Y-17208500D01*
X145796000Y-65468500D02*
X125476000Y-65468500D01*
X148336000Y-19748500D02*
X148336000Y-62928500D01*
X125476000Y-17208500D02*
G75*
G03*
X122936000Y-19748500I1J-2540001D01*
G01*
X122936000Y-62928500D02*
G75*
G03*
X125476000Y-65468500I2540001J1D01*
G01*
X148336000Y-19748500D02*
G75*
G03*
X145796000Y-17208500I-2540000J0D01*
G01*
X145796000Y-65468500D02*
G75*
G03*
X148336000Y-62928500I0J2540000D01*
G01*
D16*
X121926000Y-23558500D02*
G75*
G03*
X121926000Y-23558500I-100000J0D01*
G01*
X149546000Y-23558500D02*
G75*
G03*
X149546000Y-23558500I-100000J0D01*
G01*
D14*
X135044000Y-66908500D02*
X137244000Y-66908500D01*
X135044000Y-89428500D02*
X135044000Y-66908500D01*
X137244000Y-66908500D02*
X137244000Y-89428500D01*
X137244000Y-69278500D02*
X135044000Y-69278500D01*
X137244000Y-89428500D02*
X135044000Y-89428500D01*
D15*
X130398000Y-150994500D02*
X129248000Y-150994500D01*
X130398000Y-149044500D02*
X130398000Y-150994500D01*
X130398000Y-141994500D02*
X130398000Y-143844500D01*
X124148000Y-150994500D02*
X115998000Y-150994500D01*
X115998000Y-150994500D02*
X115998000Y-141994500D01*
X115998000Y-141994500D02*
X130398000Y-141994500D01*
D17*
X131898000Y-146494500D02*
G75*
G03*
X131898000Y-146494500I-200000J0D01*
G01*
D14*
X135044000Y-114660500D02*
X137244000Y-114660500D01*
X135044000Y-137180500D02*
X135044000Y-114660500D01*
X137244000Y-114660500D02*
X137244000Y-137180500D01*
X137244000Y-117030500D02*
X135044000Y-117030500D01*
X137244000Y-137180500D02*
X135044000Y-137180500D01*
X139420999Y-114363500D02*
X139420999Y-114814223D01*
X139420999Y-116706777D02*
X139420999Y-117486773D01*
X139420999Y-119114227D02*
X139420999Y-120026773D01*
X139420999Y-121654227D02*
X139420999Y-122566773D01*
X139420999Y-124194227D02*
X139420999Y-125106773D01*
X139420999Y-126734227D02*
X139420999Y-127646773D01*
X139420999Y-129274227D02*
X139420999Y-130186773D01*
X139420999Y-131814227D02*
X139420999Y-132726773D01*
X139420999Y-134354227D02*
X139420999Y-135266773D01*
X139420999Y-136894227D02*
X139420999Y-137477500D01*
X139420999Y-137477500D02*
X146075001Y-137477500D01*
X146075001Y-114363500D02*
X139420999Y-114363500D01*
X146075001Y-114946773D02*
X146075001Y-114363500D01*
X146075001Y-117486773D02*
X146075001Y-116574227D01*
X146075001Y-120026773D02*
X146075001Y-119114227D01*
X146075001Y-122566773D02*
X146075001Y-121654227D01*
X146075001Y-125106773D02*
X146075001Y-124194227D01*
X146075001Y-127646773D02*
X146075001Y-126734227D01*
X146075001Y-130186773D02*
X146075001Y-129274227D01*
X146075001Y-132726773D02*
X146075001Y-131814227D01*
X146075001Y-135266773D02*
X146075001Y-134354227D01*
X146075001Y-137477500D02*
X146075001Y-136894227D01*
X126174500Y-119280940D02*
X126174500Y-119937117D01*
X126174500Y-121743883D02*
X126174500Y-122477117D01*
X126174500Y-124283883D02*
X126174500Y-125017117D01*
X126174500Y-126823883D02*
X126174500Y-127557117D01*
X126174500Y-129363883D02*
X126174500Y-130097117D01*
X126174500Y-131903883D02*
X126174500Y-132637117D01*
X126174500Y-134443883D02*
X126174500Y-135177117D01*
X126174500Y-136983883D02*
X126174500Y-137160000D01*
X126174500Y-137160000D02*
X133032500Y-137160000D01*
X133032500Y-117221000D02*
X126174500Y-117221000D01*
X133032500Y-117397117D02*
X133032500Y-117221000D01*
X133032500Y-119937117D02*
X133032500Y-119203883D01*
X133032500Y-122477117D02*
X133032500Y-121743883D01*
X133032500Y-125017117D02*
X133032500Y-124283883D01*
X133032500Y-127557117D02*
X133032500Y-126823883D01*
X133032500Y-130097117D02*
X133032500Y-129363883D01*
X133032500Y-132637117D02*
X133032500Y-131903883D01*
X133032500Y-135177117D02*
X133032500Y-134443883D01*
X133032500Y-137160000D02*
X133032500Y-136983883D01*
X140970000Y-157416500D02*
X140970000Y-154876500D01*
D18*
X146939000Y-192722500D02*
X124841000Y-192722500D01*
X124841000Y-192722500D02*
X124841000Y-154622500D01*
X124841000Y-154622500D02*
X146939000Y-154622500D01*
X146939000Y-154622500D02*
X146939000Y-192722500D01*
D14*
X143510000Y-157416500D02*
X128270000Y-157416500D01*
X128270000Y-157416500D02*
X128270000Y-154876500D01*
X128270000Y-154876500D02*
X143510000Y-154876500D01*
X143510000Y-154876500D02*
X143510000Y-157416500D01*
X124860000Y-138266500D02*
X124860000Y-138971500D01*
X124860000Y-138266500D02*
X129100000Y-138266500D01*
X124860000Y-140301500D02*
X124860000Y-141006500D01*
X124860000Y-141006500D02*
X129100000Y-141006500D01*
X129100000Y-138266500D02*
X129100000Y-138971500D01*
X129100000Y-140301500D02*
X129100000Y-141006500D01*
X126174500Y-95404940D02*
X126174500Y-96061117D01*
X126174500Y-97867883D02*
X126174500Y-98601117D01*
X126174500Y-100407883D02*
X126174500Y-101141117D01*
X126174500Y-102947883D02*
X126174500Y-103681117D01*
X126174500Y-105487883D02*
X126174500Y-106221117D01*
X126174500Y-108027883D02*
X126174500Y-108761117D01*
X126174500Y-110567883D02*
X126174500Y-111301117D01*
X126174500Y-113107883D02*
X126174500Y-113284000D01*
X126174500Y-113284000D02*
X133032500Y-113284000D01*
X133032500Y-93345000D02*
X126174500Y-93345000D01*
X133032500Y-93521117D02*
X133032500Y-93345000D01*
X133032500Y-96061117D02*
X133032500Y-95327883D01*
X133032500Y-98601117D02*
X133032500Y-97867883D01*
X133032500Y-101141117D02*
X133032500Y-100407883D01*
X133032500Y-103681117D02*
X133032500Y-102947883D01*
X133032500Y-106221117D02*
X133032500Y-105487883D01*
X133032500Y-108761117D02*
X133032500Y-108027883D01*
X133032500Y-111301117D02*
X133032500Y-110567883D01*
X133032500Y-113284000D02*
X133032500Y-113107883D01*
X139420999Y-90487500D02*
X139420999Y-90938223D01*
X139420999Y-92830777D02*
X139420999Y-93610773D01*
X139420999Y-95238227D02*
X139420999Y-96150773D01*
X139420999Y-97778227D02*
X139420999Y-98690773D01*
X139420999Y-100318227D02*
X139420999Y-101230773D01*
X139420999Y-102858227D02*
X139420999Y-103770773D01*
X139420999Y-105398227D02*
X139420999Y-106310773D01*
X139420999Y-107938227D02*
X139420999Y-108850773D01*
X139420999Y-110478227D02*
X139420999Y-111390773D01*
X139420999Y-113018227D02*
X139420999Y-113601500D01*
X139420999Y-113601500D02*
X146075001Y-113601500D01*
X146075001Y-90487500D02*
X139420999Y-90487500D01*
X146075001Y-91070773D02*
X146075001Y-90487500D01*
X146075001Y-93610773D02*
X146075001Y-92698227D01*
X146075001Y-96150773D02*
X146075001Y-95238227D01*
X146075001Y-98690773D02*
X146075001Y-97778227D01*
X146075001Y-101230773D02*
X146075001Y-100318227D01*
X146075001Y-103770773D02*
X146075001Y-102858227D01*
X146075001Y-106310773D02*
X146075001Y-105398227D01*
X146075001Y-108850773D02*
X146075001Y-107938227D01*
X146075001Y-111390773D02*
X146075001Y-110478227D01*
X146075001Y-113601500D02*
X146075001Y-113018227D01*
D15*
X133276000Y-143238500D02*
X133276000Y-150598500D01*
X135596000Y-140918500D02*
X142956000Y-140918500D01*
X135596000Y-152918500D02*
X142956000Y-152918500D01*
X145276000Y-143238500D02*
X145276000Y-150598500D01*
D16*
X131586000Y-141668500D02*
G75*
G03*
X131586000Y-141668500I-100000J0D01*
G01*
D14*
X135044000Y-90784500D02*
X137244000Y-90784500D01*
X135044000Y-113304500D02*
X135044000Y-90784500D01*
X137244000Y-90784500D02*
X137244000Y-113304500D01*
X137244000Y-93154500D02*
X135044000Y-93154500D01*
X137244000Y-113304500D02*
X135044000Y-113304500D01*
X139420999Y-66611500D02*
X139420999Y-67062223D01*
X139420999Y-68954777D02*
X139420999Y-69734773D01*
X139420999Y-71362227D02*
X139420999Y-72274773D01*
X139420999Y-73902227D02*
X139420999Y-74814773D01*
X139420999Y-76442227D02*
X139420999Y-77354773D01*
X139420999Y-78982227D02*
X139420999Y-79894773D01*
X139420999Y-81522227D02*
X139420999Y-82434773D01*
X139420999Y-84062227D02*
X139420999Y-84974773D01*
X139420999Y-86602227D02*
X139420999Y-87514773D01*
X139420999Y-89142227D02*
X139420999Y-89725500D01*
X139420999Y-89725500D02*
X146075001Y-89725500D01*
X146075001Y-66611500D02*
X139420999Y-66611500D01*
X146075001Y-67194773D02*
X146075001Y-66611500D01*
X146075001Y-69734773D02*
X146075001Y-68822227D01*
X146075001Y-72274773D02*
X146075001Y-71362227D01*
X146075001Y-74814773D02*
X146075001Y-73902227D01*
X146075001Y-77354773D02*
X146075001Y-76442227D01*
X146075001Y-79894773D02*
X146075001Y-78982227D01*
X146075001Y-82434773D02*
X146075001Y-81522227D01*
X146075001Y-84974773D02*
X146075001Y-84062227D01*
X146075001Y-87514773D02*
X146075001Y-86602227D01*
X146075001Y-89725500D02*
X146075001Y-89142227D01*
%TD*%
%LPC*%
D19*
%TO.C,*%
X148843999Y-96964499D03*
%TD*%
%TO.C,*%
X148843999Y-115760499D03*
%TD*%
D20*
%TO.C,REF\u002A\u002A*%
X124988000Y-67500500D03*
X127488000Y-67500500D03*
%TD*%
D21*
%TO.C,REF\u002A\u002A*%
X148843999Y-150010499D03*
D20*
X148844000Y-147510500D03*
%TD*%
D19*
%TO.C,*%
X148843999Y-73088499D03*
%TD*%
%TO.C,REF\u002A\u002A*%
X148843999Y-94424499D03*
%TD*%
D22*
%TO.C,REF\u002A\u002A*%
X148843999Y-141668499D03*
%TD*%
D19*
%TO.C,*%
X148843999Y-91884499D03*
%TD*%
D23*
%TO.C,REF\u002A\u002A*%
X125793499Y-70548499D03*
D24*
X125793500Y-73088500D03*
X125793500Y-75628500D03*
X125793500Y-78168500D03*
X125793500Y-80708500D03*
X125793500Y-83248500D03*
X125793500Y-85788500D03*
X125793500Y-88328500D03*
X133413500Y-88328500D03*
X133413500Y-85788500D03*
X133413500Y-83248500D03*
X133413500Y-80708500D03*
X133413500Y-78168500D03*
X133413500Y-75628500D03*
X133413500Y-73088500D03*
X133413500Y-70548500D03*
%TD*%
D19*
%TO.C,*%
X148843999Y-68008499D03*
%TD*%
D25*
%TO.C,REF\u002A\u002A*%
X125476000Y-19748500D03*
X125476000Y-62928500D03*
X145796000Y-19748500D03*
X145796000Y-62928500D03*
D26*
X124205999Y-23558499D03*
D27*
X124206000Y-26098500D03*
X124206000Y-28638500D03*
X124206000Y-31178500D03*
X124206000Y-33718500D03*
X124206000Y-36258500D03*
X124206000Y-38798500D03*
X124206000Y-41338500D03*
X124206000Y-43878500D03*
X124206000Y-46418500D03*
X124206000Y-48958500D03*
X124206000Y-51498500D03*
X124206000Y-54038500D03*
X124206000Y-56578500D03*
X124206000Y-59118500D03*
D26*
X147065999Y-23558499D03*
D27*
X147066000Y-26098500D03*
X147066000Y-28638500D03*
X147066000Y-31178500D03*
X147066000Y-33718500D03*
X147066000Y-36258500D03*
X147066000Y-38798500D03*
X147066000Y-41338500D03*
X147066000Y-43878500D03*
X147066000Y-46418500D03*
X147066000Y-48958500D03*
X147066000Y-51498500D03*
X147066000Y-54038500D03*
X147066000Y-56578500D03*
X147066000Y-59118500D03*
%TD*%
D19*
%TO.C,REF\u002A\u002A*%
X148843999Y-118300499D03*
%TD*%
D28*
%TO.C,REF\u002A\u002A*%
X136144000Y-68008500D03*
X136144000Y-70548500D03*
X136144000Y-73088500D03*
X136144000Y-75628500D03*
X136144000Y-78168500D03*
X136144000Y-80708500D03*
X136144000Y-83248500D03*
X136144000Y-85788500D03*
X136144000Y-88328500D03*
%TD*%
D19*
%TO.C,REF\u002A\u002A*%
X148843999Y-80708499D03*
%TD*%
%TO.C,REF\u002A\u002A*%
X148843999Y-128460499D03*
%TD*%
%TO.C,*%
X148843999Y-120840499D03*
%TD*%
D29*
%TO.C,REF\u002A\u002A*%
X129697999Y-146494499D03*
D30*
X123697999Y-146494499D03*
D31*
X126697999Y-151194499D03*
%TD*%
D19*
%TO.C,REF\u002A\u002A*%
X148843999Y-109664499D03*
%TD*%
%TO.C,REF\u002A\u002A*%
X148843999Y-99504499D03*
%TD*%
%TO.C,*%
X148843999Y-125920499D03*
%TD*%
%TO.C,*%
X148843999Y-85788499D03*
%TD*%
%TO.C,*%
X148843999Y-102044499D03*
%TD*%
D28*
%TO.C,REF\u002A\u002A*%
X136144000Y-115760500D03*
X136144000Y-118300500D03*
X136144000Y-120840500D03*
X136144000Y-123380500D03*
X136144000Y-125920500D03*
X136144000Y-128460500D03*
X136144000Y-131000500D03*
X136144000Y-133540500D03*
X136144000Y-136080500D03*
%TD*%
D32*
%TO.C,REF\u002A\u002A*%
X138937999Y-115760499D03*
D33*
X138938000Y-118300500D03*
X138938000Y-120840500D03*
X138938000Y-123380500D03*
X138938000Y-125920500D03*
X138938000Y-128460500D03*
X138938000Y-131000500D03*
X138938000Y-133540500D03*
X138938000Y-136080500D03*
X146558000Y-136080500D03*
X146558000Y-133540500D03*
X146558000Y-131000500D03*
X146558000Y-128460500D03*
X146558000Y-125920500D03*
X146558000Y-123380500D03*
X146558000Y-120840500D03*
X146558000Y-118300500D03*
X146558000Y-115760500D03*
%TD*%
D19*
%TO.C,REF\u002A\u002A*%
X148843999Y-104584499D03*
%TD*%
D23*
%TO.C,REF\u002A\u002A*%
X125793499Y-118300499D03*
D24*
X125793500Y-120840500D03*
X125793500Y-123380500D03*
X125793500Y-125920500D03*
X125793500Y-128460500D03*
X125793500Y-131000500D03*
X125793500Y-133540500D03*
X125793500Y-136080500D03*
X133413500Y-136080500D03*
X133413500Y-133540500D03*
X133413500Y-131000500D03*
X133413500Y-128460500D03*
X133413500Y-125920500D03*
X133413500Y-123380500D03*
X133413500Y-120840500D03*
X133413500Y-118300500D03*
%TD*%
D19*
%TO.C,*%
X148843999Y-83248499D03*
%TD*%
%TO.C,*%
X148843999Y-75628499D03*
%TD*%
%TO.C,REF\u002A\u002A*%
X148843999Y-133540499D03*
%TD*%
%TO.C,*%
X148843999Y-131000499D03*
%TD*%
D34*
%TO.C,REF\u002A\u002A*%
X129540000Y-156146500D03*
X142240000Y-156146500D03*
X134620000Y-156146500D03*
X137160000Y-156146500D03*
X132080000Y-156146500D03*
X139700000Y-156146500D03*
%TD*%
D20*
%TO.C,REF\u002A\u002A*%
X125730000Y-139636500D03*
X128230000Y-139636500D03*
%TD*%
D23*
%TO.C,REF\u002A\u002A*%
X125793499Y-94424499D03*
D24*
X125793500Y-96964500D03*
X125793500Y-99504500D03*
X125793500Y-102044500D03*
X125793500Y-104584500D03*
X125793500Y-107124500D03*
X125793500Y-109664500D03*
X125793500Y-112204500D03*
X133413500Y-112204500D03*
X133413500Y-109664500D03*
X133413500Y-107124500D03*
X133413500Y-104584500D03*
X133413500Y-102044500D03*
X133413500Y-99504500D03*
X133413500Y-96964500D03*
X133413500Y-94424500D03*
%TD*%
D19*
%TO.C,*%
X148843999Y-107124499D03*
%TD*%
D32*
%TO.C,REF\u002A\u002A*%
X138937999Y-91884499D03*
D33*
X138938000Y-94424500D03*
X138938000Y-96964500D03*
X138938000Y-99504500D03*
X138938000Y-102044500D03*
X138938000Y-104584500D03*
X138938000Y-107124500D03*
X138938000Y-109664500D03*
X138938000Y-112204500D03*
X146558000Y-112204500D03*
X146558000Y-109664500D03*
X146558000Y-107124500D03*
X146558000Y-104584500D03*
X146558000Y-102044500D03*
X146558000Y-99504500D03*
X146558000Y-96964500D03*
X146558000Y-94424500D03*
X146558000Y-91884500D03*
%TD*%
D19*
%TO.C,*%
X148843999Y-78168499D03*
%TD*%
D35*
%TO.C,REF\u002A\u002A*%
X134025999Y-141668499D03*
X134025999Y-152168499D03*
X144525999Y-152168499D03*
X144525999Y-141668499D03*
%TD*%
D28*
%TO.C,REF\u002A\u002A*%
X136144000Y-91884500D03*
X136144000Y-94424500D03*
X136144000Y-96964500D03*
X136144000Y-99504500D03*
X136144000Y-102044500D03*
X136144000Y-104584500D03*
X136144000Y-107124500D03*
X136144000Y-109664500D03*
X136144000Y-112204500D03*
%TD*%
D19*
%TO.C,REF\u002A\u002A*%
X148843999Y-70548499D03*
%TD*%
D32*
%TO.C,REF\u002A\u002A*%
X138937999Y-68008499D03*
D33*
X138938000Y-70548500D03*
X138938000Y-73088500D03*
X138938000Y-75628500D03*
X138938000Y-78168500D03*
X138938000Y-80708500D03*
X138938000Y-83248500D03*
X138938000Y-85788500D03*
X138938000Y-88328500D03*
X146558000Y-88328500D03*
X146558000Y-85788500D03*
X146558000Y-83248500D03*
X146558000Y-80708500D03*
X146558000Y-78168500D03*
X146558000Y-75628500D03*
X146558000Y-73088500D03*
X146558000Y-70548500D03*
X146558000Y-68008500D03*
%TD*%
D19*
%TO.C,*%
X148843999Y-123380499D03*
%TD*%
M02*
