%TF.GenerationSoftware,KiCad,Pcbnew,(7.0.0)*%
%TF.CreationDate,2023-05-15T22:46:06-04:00*%
%TF.ProjectId,clockPCB,636c6f63-6b50-4434-922e-6b696361645f,rev?*%
%TF.SameCoordinates,Original*%
%TF.FileFunction,Copper,L1,Top*%
%TF.FilePolarity,Positive*%
%FSLAX46Y46*%
G04 Gerber Fmt 4.6, Leading zero omitted, Abs format (unit mm)*
G04 Created by KiCad (PCBNEW (7.0.0)) date 2023-05-15 22:46:06*
%MOMM*%
%LPD*%
G01*
G04 APERTURE LIST*
%TA.AperFunction,SMDPad,CuDef*%
%ADD10R,2.286000X1.524000*%
%TD*%
%TA.AperFunction,ComponentPad*%
%ADD11C,1.600000*%
%TD*%
%TA.AperFunction,ComponentPad*%
%ADD12R,1.600000X1.600000*%
%TD*%
%TA.AperFunction,SMDPad,CuDef*%
%ADD13R,2.286000X6.096000*%
%TD*%
%TA.AperFunction,ComponentPad*%
%ADD14R,1.295400X1.295400*%
%TD*%
%TA.AperFunction,ComponentPad*%
%ADD15C,1.295400*%
%TD*%
%TA.AperFunction,ComponentPad*%
%ADD16R,1.930000X1.930000*%
%TD*%
%TA.AperFunction,ComponentPad*%
%ADD17C,1.930000*%
%TD*%
%TA.AperFunction,ComponentPad*%
%ADD18C,1.200000*%
%TD*%
%TA.AperFunction,ComponentPad*%
%ADD19O,2.500000X5.000000*%
%TD*%
%TA.AperFunction,ComponentPad*%
%ADD20O,2.250000X4.500000*%
%TD*%
%TA.AperFunction,ComponentPad*%
%ADD21O,4.500000X2.250000*%
%TD*%
%TA.AperFunction,ComponentPad*%
%ADD22R,1.227074X1.227074*%
%TD*%
%TA.AperFunction,ComponentPad*%
%ADD23C,1.227074*%
%TD*%
%TA.AperFunction,ComponentPad*%
%ADD24C,1.524000*%
%TD*%
%TA.AperFunction,SMDPad,CuDef*%
%ADD25R,2.500000X2.500000*%
%TD*%
%TA.AperFunction,ViaPad*%
%ADD26C,0.800000*%
%TD*%
%TA.AperFunction,Conductor*%
%ADD27C,0.250000*%
%TD*%
%TA.AperFunction,Conductor*%
%ADD28C,0.200000*%
%TD*%
%TA.AperFunction,Conductor*%
%ADD29C,0.400000*%
%TD*%
G04 APERTURE END LIST*
D10*
%TO.P,,*%
%TO.N,*%
X148843999Y-96964499D03*
%TD*%
%TO.P,,*%
%TO.N,*%
X148843999Y-115760499D03*
%TD*%
D11*
%TO.P,REF\u002A\u002A,1*%
%TO.N,N/C*%
X124988000Y-67500500D03*
%TO.P,REF\u002A\u002A,2*%
X127488000Y-67500500D03*
%TD*%
D12*
%TO.P,REF\u002A\u002A,1*%
%TO.N,N/C*%
X148843999Y-150010499D03*
D11*
%TO.P,REF\u002A\u002A,2*%
X148844000Y-147510500D03*
%TD*%
D10*
%TO.P,,*%
%TO.N,*%
X148843999Y-73088499D03*
%TD*%
%TO.P,REF\u002A\u002A,*%
%TO.N,*%
X148843999Y-94424499D03*
%TD*%
D13*
%TO.P,REF\u002A\u002A,*%
%TO.N,*%
X148843999Y-141668499D03*
%TD*%
D10*
%TO.P,,*%
%TO.N,*%
X148843999Y-91884499D03*
%TD*%
D14*
%TO.P,REF\u002A\u002A,1*%
%TO.N,N/C*%
X125793499Y-70548499D03*
D15*
%TO.P,REF\u002A\u002A,2*%
X125793500Y-73088500D03*
%TO.P,REF\u002A\u002A,3*%
X125793500Y-75628500D03*
%TO.P,REF\u002A\u002A,4*%
X125793500Y-78168500D03*
%TO.P,REF\u002A\u002A,5*%
X125793500Y-80708500D03*
%TO.P,REF\u002A\u002A,6*%
X125793500Y-83248500D03*
%TO.P,REF\u002A\u002A,7*%
X125793500Y-85788500D03*
%TO.P,REF\u002A\u002A,8*%
X125793500Y-88328500D03*
%TO.P,REF\u002A\u002A,9*%
X133413500Y-88328500D03*
%TO.P,REF\u002A\u002A,10*%
X133413500Y-85788500D03*
%TO.P,REF\u002A\u002A,11*%
X133413500Y-83248500D03*
%TO.P,REF\u002A\u002A,12*%
X133413500Y-80708500D03*
%TO.P,REF\u002A\u002A,13*%
X133413500Y-78168500D03*
%TO.P,REF\u002A\u002A,14*%
X133413500Y-75628500D03*
%TO.P,REF\u002A\u002A,15*%
X133413500Y-73088500D03*
%TO.P,REF\u002A\u002A,16*%
X133413500Y-70548500D03*
%TD*%
D10*
%TO.P,,*%
%TO.N,*%
X148843999Y-68008499D03*
%TD*%
D16*
%TO.P,REF\u002A\u002A,J1_1*%
%TO.N,N/C*%
X124205999Y-23558499D03*
D17*
%TO.P,REF\u002A\u002A,J1_2*%
X124206000Y-26098500D03*
%TO.P,REF\u002A\u002A,J1_3*%
X124206000Y-28638500D03*
%TO.P,REF\u002A\u002A,J1_4*%
X124206000Y-31178500D03*
%TO.P,REF\u002A\u002A,J1_5*%
X124206000Y-33718500D03*
%TO.P,REF\u002A\u002A,J1_6*%
X124206000Y-36258500D03*
%TO.P,REF\u002A\u002A,J1_7*%
X124206000Y-38798500D03*
%TO.P,REF\u002A\u002A,J1_8*%
X124206000Y-41338500D03*
%TO.P,REF\u002A\u002A,J1_9*%
X124206000Y-43878500D03*
%TO.P,REF\u002A\u002A,J1_10*%
X124206000Y-46418500D03*
%TO.P,REF\u002A\u002A,J1_11*%
X124206000Y-48958500D03*
%TO.P,REF\u002A\u002A,J1_12*%
X124206000Y-51498500D03*
%TO.P,REF\u002A\u002A,J1_13*%
X124206000Y-54038500D03*
%TO.P,REF\u002A\u002A,J1_14*%
X124206000Y-56578500D03*
%TO.P,REF\u002A\u002A,J1_15*%
X124206000Y-59118500D03*
D16*
%TO.P,REF\u002A\u002A,J2_1*%
X147065999Y-23558499D03*
D17*
%TO.P,REF\u002A\u002A,J2_2*%
X147066000Y-26098500D03*
%TO.P,REF\u002A\u002A,J2_3*%
X147066000Y-28638500D03*
%TO.P,REF\u002A\u002A,J2_4*%
X147066000Y-31178500D03*
%TO.P,REF\u002A\u002A,J2_5*%
X147066000Y-33718500D03*
%TO.P,REF\u002A\u002A,J2_6*%
X147066000Y-36258500D03*
%TO.P,REF\u002A\u002A,J2_7*%
X147066000Y-38798500D03*
%TO.P,REF\u002A\u002A,J2_8*%
X147066000Y-41338500D03*
%TO.P,REF\u002A\u002A,J2_9*%
X147066000Y-43878500D03*
%TO.P,REF\u002A\u002A,J2_10*%
X147066000Y-46418500D03*
%TO.P,REF\u002A\u002A,J2_11*%
X147066000Y-48958500D03*
%TO.P,REF\u002A\u002A,J2_12*%
X147066000Y-51498500D03*
%TO.P,REF\u002A\u002A,J2_13*%
X147066000Y-54038500D03*
%TO.P,REF\u002A\u002A,J2_14*%
X147066000Y-56578500D03*
%TO.P,REF\u002A\u002A,J2_15*%
X147066000Y-59118500D03*
%TD*%
D10*
%TO.P,REF\u002A\u002A,*%
%TO.N,*%
X148843999Y-118300499D03*
%TD*%
D18*
%TO.P,REF\u002A\u002A,1*%
%TO.N,N/C*%
X136144000Y-68008500D03*
%TO.P,REF\u002A\u002A,2*%
X136144000Y-70548500D03*
%TO.P,REF\u002A\u002A,3*%
X136144000Y-73088500D03*
%TO.P,REF\u002A\u002A,4*%
X136144000Y-75628500D03*
%TO.P,REF\u002A\u002A,5*%
X136144000Y-78168500D03*
%TO.P,REF\u002A\u002A,6*%
X136144000Y-80708500D03*
%TO.P,REF\u002A\u002A,7*%
X136144000Y-83248500D03*
%TO.P,REF\u002A\u002A,8*%
X136144000Y-85788500D03*
%TO.P,REF\u002A\u002A,9*%
X136144000Y-88328500D03*
%TD*%
D10*
%TO.P,REF\u002A\u002A,*%
%TO.N,*%
X148843999Y-80708499D03*
%TD*%
%TO.P,REF\u002A\u002A,*%
%TO.N,*%
X148843999Y-128460499D03*
%TD*%
%TO.P,,*%
%TO.N,*%
X148843999Y-120840499D03*
%TD*%
D19*
%TO.P,REF\u002A\u002A,1*%
%TO.N,N/C*%
X129697999Y-146494499D03*
D20*
%TO.P,REF\u002A\u002A,2*%
X123697999Y-146494499D03*
D21*
%TO.P,REF\u002A\u002A,3*%
X126697999Y-151194499D03*
%TD*%
D10*
%TO.P,REF\u002A\u002A,*%
%TO.N,*%
X148843999Y-109664499D03*
%TD*%
%TO.P,REF\u002A\u002A,*%
%TO.N,*%
X148843999Y-99504499D03*
%TD*%
%TO.P,,*%
%TO.N,*%
X148843999Y-125920499D03*
%TD*%
%TO.P,,*%
%TO.N,*%
X148843999Y-85788499D03*
%TD*%
%TO.P,,*%
%TO.N,*%
X148843999Y-102044499D03*
%TD*%
D18*
%TO.P,REF\u002A\u002A,1*%
%TO.N,N/C*%
X136144000Y-115760500D03*
%TO.P,REF\u002A\u002A,2*%
X136144000Y-118300500D03*
%TO.P,REF\u002A\u002A,3*%
X136144000Y-120840500D03*
%TO.P,REF\u002A\u002A,4*%
X136144000Y-123380500D03*
%TO.P,REF\u002A\u002A,5*%
X136144000Y-125920500D03*
%TO.P,REF\u002A\u002A,6*%
X136144000Y-128460500D03*
%TO.P,REF\u002A\u002A,7*%
X136144000Y-131000500D03*
%TO.P,REF\u002A\u002A,8*%
X136144000Y-133540500D03*
%TO.P,REF\u002A\u002A,9*%
X136144000Y-136080500D03*
%TD*%
D22*
%TO.P,REF\u002A\u002A,1*%
%TO.N,N/C*%
X138937999Y-115760499D03*
D23*
%TO.P,REF\u002A\u002A,2*%
X138938000Y-118300500D03*
%TO.P,REF\u002A\u002A,3*%
X138938000Y-120840500D03*
%TO.P,REF\u002A\u002A,4*%
X138938000Y-123380500D03*
%TO.P,REF\u002A\u002A,5*%
X138938000Y-125920500D03*
%TO.P,REF\u002A\u002A,6*%
X138938000Y-128460500D03*
%TO.P,REF\u002A\u002A,7*%
X138938000Y-131000500D03*
%TO.P,REF\u002A\u002A,8*%
X138938000Y-133540500D03*
%TO.P,REF\u002A\u002A,9*%
X138938000Y-136080500D03*
%TO.P,REF\u002A\u002A,10*%
X146558000Y-136080500D03*
%TO.P,REF\u002A\u002A,11*%
X146558000Y-133540500D03*
%TO.P,REF\u002A\u002A,12*%
X146558000Y-131000500D03*
%TO.P,REF\u002A\u002A,13*%
X146558000Y-128460500D03*
%TO.P,REF\u002A\u002A,14*%
X146558000Y-125920500D03*
%TO.P,REF\u002A\u002A,15*%
X146558000Y-123380500D03*
%TO.P,REF\u002A\u002A,16*%
X146558000Y-120840500D03*
%TO.P,REF\u002A\u002A,17*%
X146558000Y-118300500D03*
%TO.P,REF\u002A\u002A,18*%
X146558000Y-115760500D03*
%TD*%
D10*
%TO.P,REF\u002A\u002A,*%
%TO.N,*%
X148843999Y-104584499D03*
%TD*%
D14*
%TO.P,REF\u002A\u002A,1*%
%TO.N,N/C*%
X125793499Y-118300499D03*
D15*
%TO.P,REF\u002A\u002A,2*%
X125793500Y-120840500D03*
%TO.P,REF\u002A\u002A,3*%
X125793500Y-123380500D03*
%TO.P,REF\u002A\u002A,4*%
X125793500Y-125920500D03*
%TO.P,REF\u002A\u002A,5*%
X125793500Y-128460500D03*
%TO.P,REF\u002A\u002A,6*%
X125793500Y-131000500D03*
%TO.P,REF\u002A\u002A,7*%
X125793500Y-133540500D03*
%TO.P,REF\u002A\u002A,8*%
X125793500Y-136080500D03*
%TO.P,REF\u002A\u002A,9*%
X133413500Y-136080500D03*
%TO.P,REF\u002A\u002A,10*%
X133413500Y-133540500D03*
%TO.P,REF\u002A\u002A,11*%
X133413500Y-131000500D03*
%TO.P,REF\u002A\u002A,12*%
X133413500Y-128460500D03*
%TO.P,REF\u002A\u002A,13*%
X133413500Y-125920500D03*
%TO.P,REF\u002A\u002A,14*%
X133413500Y-123380500D03*
%TO.P,REF\u002A\u002A,15*%
X133413500Y-120840500D03*
%TO.P,REF\u002A\u002A,16*%
X133413500Y-118300500D03*
%TD*%
D10*
%TO.P,,*%
%TO.N,*%
X148843999Y-83248499D03*
%TD*%
%TO.P,,*%
%TO.N,*%
X148843999Y-75628499D03*
%TD*%
%TO.P,REF\u002A\u002A,*%
%TO.N,*%
X148843999Y-133540499D03*
%TD*%
%TO.P,,*%
%TO.N,*%
X148843999Y-131000499D03*
%TD*%
D24*
%TO.P,REF\u002A\u002A,32K*%
%TO.N,N/C*%
X129540000Y-156146500D03*
%TO.P,REF\u002A\u002A,GND*%
X142240000Y-156146500D03*
%TO.P,REF\u002A\u002A,SCL*%
X134620000Y-156146500D03*
%TO.P,REF\u002A\u002A,SDA*%
X137160000Y-156146500D03*
%TO.P,REF\u002A\u002A,SQW*%
X132080000Y-156146500D03*
%TO.P,REF\u002A\u002A,VCC*%
X139700000Y-156146500D03*
%TD*%
D11*
%TO.P,REF\u002A\u002A,1*%
%TO.N,N/C*%
X125730000Y-139636500D03*
%TO.P,REF\u002A\u002A,2*%
X128230000Y-139636500D03*
%TD*%
D14*
%TO.P,REF\u002A\u002A,1*%
%TO.N,N/C*%
X125793499Y-94424499D03*
D15*
%TO.P,REF\u002A\u002A,2*%
X125793500Y-96964500D03*
%TO.P,REF\u002A\u002A,3*%
X125793500Y-99504500D03*
%TO.P,REF\u002A\u002A,4*%
X125793500Y-102044500D03*
%TO.P,REF\u002A\u002A,5*%
X125793500Y-104584500D03*
%TO.P,REF\u002A\u002A,6*%
X125793500Y-107124500D03*
%TO.P,REF\u002A\u002A,7*%
X125793500Y-109664500D03*
%TO.P,REF\u002A\u002A,8*%
X125793500Y-112204500D03*
%TO.P,REF\u002A\u002A,9*%
X133413500Y-112204500D03*
%TO.P,REF\u002A\u002A,10*%
X133413500Y-109664500D03*
%TO.P,REF\u002A\u002A,11*%
X133413500Y-107124500D03*
%TO.P,REF\u002A\u002A,12*%
X133413500Y-104584500D03*
%TO.P,REF\u002A\u002A,13*%
X133413500Y-102044500D03*
%TO.P,REF\u002A\u002A,14*%
X133413500Y-99504500D03*
%TO.P,REF\u002A\u002A,15*%
X133413500Y-96964500D03*
%TO.P,REF\u002A\u002A,16*%
X133413500Y-94424500D03*
%TD*%
D10*
%TO.P,,*%
%TO.N,*%
X148843999Y-107124499D03*
%TD*%
D22*
%TO.P,REF\u002A\u002A,1*%
%TO.N,N/C*%
X138937999Y-91884499D03*
D23*
%TO.P,REF\u002A\u002A,2*%
X138938000Y-94424500D03*
%TO.P,REF\u002A\u002A,3*%
X138938000Y-96964500D03*
%TO.P,REF\u002A\u002A,4*%
X138938000Y-99504500D03*
%TO.P,REF\u002A\u002A,5*%
X138938000Y-102044500D03*
%TO.P,REF\u002A\u002A,6*%
X138938000Y-104584500D03*
%TO.P,REF\u002A\u002A,7*%
X138938000Y-107124500D03*
%TO.P,REF\u002A\u002A,8*%
X138938000Y-109664500D03*
%TO.P,REF\u002A\u002A,9*%
X138938000Y-112204500D03*
%TO.P,REF\u002A\u002A,10*%
X146558000Y-112204500D03*
%TO.P,REF\u002A\u002A,11*%
X146558000Y-109664500D03*
%TO.P,REF\u002A\u002A,12*%
X146558000Y-107124500D03*
%TO.P,REF\u002A\u002A,13*%
X146558000Y-104584500D03*
%TO.P,REF\u002A\u002A,14*%
X146558000Y-102044500D03*
%TO.P,REF\u002A\u002A,15*%
X146558000Y-99504500D03*
%TO.P,REF\u002A\u002A,16*%
X146558000Y-96964500D03*
%TO.P,REF\u002A\u002A,17*%
X146558000Y-94424500D03*
%TO.P,REF\u002A\u002A,18*%
X146558000Y-91884500D03*
%TD*%
D10*
%TO.P,,*%
%TO.N,*%
X148843999Y-78168499D03*
%TD*%
D25*
%TO.P,REF\u002A\u002A,1*%
%TO.N,N/C*%
X134025999Y-141668499D03*
%TO.P,REF\u002A\u002A,2*%
X134025999Y-152168499D03*
%TO.P,REF\u002A\u002A,3*%
X144525999Y-152168499D03*
%TO.P,REF\u002A\u002A,4*%
X144525999Y-141668499D03*
%TD*%
D18*
%TO.P,REF\u002A\u002A,1*%
%TO.N,N/C*%
X136144000Y-91884500D03*
%TO.P,REF\u002A\u002A,2*%
X136144000Y-94424500D03*
%TO.P,REF\u002A\u002A,3*%
X136144000Y-96964500D03*
%TO.P,REF\u002A\u002A,4*%
X136144000Y-99504500D03*
%TO.P,REF\u002A\u002A,5*%
X136144000Y-102044500D03*
%TO.P,REF\u002A\u002A,6*%
X136144000Y-104584500D03*
%TO.P,REF\u002A\u002A,7*%
X136144000Y-107124500D03*
%TO.P,REF\u002A\u002A,8*%
X136144000Y-109664500D03*
%TO.P,REF\u002A\u002A,9*%
X136144000Y-112204500D03*
%TD*%
D10*
%TO.P,REF\u002A\u002A,*%
%TO.N,*%
X148843999Y-70548499D03*
%TD*%
D22*
%TO.P,REF\u002A\u002A,1*%
%TO.N,N/C*%
X138937999Y-68008499D03*
D23*
%TO.P,REF\u002A\u002A,2*%
X138938000Y-70548500D03*
%TO.P,REF\u002A\u002A,3*%
X138938000Y-73088500D03*
%TO.P,REF\u002A\u002A,4*%
X138938000Y-75628500D03*
%TO.P,REF\u002A\u002A,5*%
X138938000Y-78168500D03*
%TO.P,REF\u002A\u002A,6*%
X138938000Y-80708500D03*
%TO.P,REF\u002A\u002A,7*%
X138938000Y-83248500D03*
%TO.P,REF\u002A\u002A,8*%
X138938000Y-85788500D03*
%TO.P,REF\u002A\u002A,9*%
X138938000Y-88328500D03*
%TO.P,REF\u002A\u002A,10*%
X146558000Y-88328500D03*
%TO.P,REF\u002A\u002A,11*%
X146558000Y-85788500D03*
%TO.P,REF\u002A\u002A,12*%
X146558000Y-83248500D03*
%TO.P,REF\u002A\u002A,13*%
X146558000Y-80708500D03*
%TO.P,REF\u002A\u002A,14*%
X146558000Y-78168500D03*
%TO.P,REF\u002A\u002A,15*%
X146558000Y-75628500D03*
%TO.P,REF\u002A\u002A,16*%
X146558000Y-73088500D03*
%TO.P,REF\u002A\u002A,17*%
X146558000Y-70548500D03*
%TO.P,REF\u002A\u002A,18*%
X146558000Y-68008500D03*
%TD*%
D10*
%TO.P,,*%
%TO.N,*%
X148843999Y-123380499D03*
%TD*%
D26*
%TO.N,*%
X131572000Y-142684500D03*
X143002000Y-149796500D03*
X132080000Y-102044500D03*
X140970000Y-139128500D03*
X131318000Y-104584500D03*
X129794000Y-85788500D03*
X141986000Y-139128500D03*
X135636000Y-148526500D03*
X136144000Y-90106500D03*
X130556000Y-107124500D03*
X130556000Y-83248500D03*
X128778000Y-90106500D03*
X143002000Y-139128500D03*
X131318000Y-80708500D03*
X129794000Y-109664500D03*
X132080000Y-78168500D03*
%TD*%
D27*
%TO.N,*%
X129349500Y-90678000D02*
X128778000Y-90106500D01*
X135572500Y-90678000D02*
X129349500Y-90678000D01*
X136144000Y-90106500D02*
X135572500Y-90678000D01*
D28*
X147066000Y-36258500D02*
X131826000Y-36258500D01*
X131826000Y-36258500D02*
X124206000Y-43878500D01*
D27*
X135953500Y-68008500D02*
X136144000Y-68008500D01*
X133413500Y-70548500D02*
X135953500Y-68008500D01*
X135953500Y-91884500D02*
X136144000Y-91884500D01*
X133413500Y-94424500D02*
X135953500Y-91884500D01*
X135953500Y-115760500D02*
X136144000Y-115760500D01*
X133413500Y-118300500D02*
X135953500Y-115760500D01*
D29*
X139446000Y-141668500D02*
X144526000Y-141668500D01*
D27*
X138684000Y-102044500D02*
X138938000Y-102044500D01*
X133254750Y-78168500D02*
X132080000Y-78168500D01*
X148844000Y-73088500D02*
X146558000Y-73088500D01*
X134874000Y-132270500D02*
X136144000Y-131000500D01*
D28*
X149098000Y-64706500D02*
X149098000Y-38798500D01*
D29*
X129920000Y-151194500D02*
X139446000Y-141668500D01*
D28*
X131572000Y-140144500D02*
X131572000Y-142684500D01*
D27*
X129603500Y-98234500D02*
X134874000Y-98234500D01*
X138684000Y-107124500D02*
X138938000Y-107124500D01*
X130556000Y-107124500D02*
X133413500Y-107124500D01*
D29*
X138938000Y-136080500D02*
X134026000Y-140992500D01*
D27*
X129603500Y-122110500D02*
X134874000Y-122110500D01*
X148844000Y-96964500D02*
X146558000Y-96964500D01*
X125793500Y-96964500D02*
X129603500Y-100774500D01*
X125793500Y-99504500D02*
X129603500Y-103314500D01*
X136144000Y-96964500D02*
X138684000Y-94424500D01*
X125793500Y-107124500D02*
X129603500Y-110934500D01*
X125793500Y-104584500D02*
X129603500Y-108394500D01*
D28*
X123952000Y-136080500D02*
X126492000Y-138620500D01*
D29*
X126698000Y-151194500D02*
X129920000Y-151194500D01*
D27*
X148844000Y-94424500D02*
X146558000Y-94424500D01*
X136144000Y-99504500D02*
X138684000Y-96964500D01*
X134874000Y-81978500D02*
X136144000Y-80708500D01*
X129603500Y-105854500D02*
X134874000Y-105854500D01*
D29*
X140208000Y-112204500D02*
X140208000Y-88328500D01*
D27*
X134874000Y-129730500D02*
X136144000Y-128460500D01*
X123952000Y-116522500D02*
X123952000Y-134048500D01*
X125793500Y-128460500D02*
X129603500Y-132270500D01*
X148844000Y-118300500D02*
X146558000Y-118300500D01*
X134874000Y-98234500D02*
X136144000Y-96964500D01*
X133413500Y-109664500D02*
X129794000Y-109664500D01*
X136144000Y-120840500D02*
X138684000Y-118300500D01*
D28*
X144526000Y-148272500D02*
X144526000Y-141668500D01*
D27*
X136144000Y-78168500D02*
X138684000Y-75628500D01*
D28*
X127000000Y-69278500D02*
X127488000Y-68790500D01*
D27*
X125793500Y-70548500D02*
X129603500Y-74358500D01*
X136144000Y-125920500D02*
X138684000Y-123380500D01*
D28*
X143002000Y-149796500D02*
X143002000Y-150644500D01*
D27*
X133413500Y-73088500D02*
X135953500Y-70548500D01*
X138684000Y-96964500D02*
X138938000Y-96964500D01*
D29*
X139278000Y-152168500D02*
X135636000Y-148526500D01*
X144526000Y-141668500D02*
X148844000Y-141668500D01*
D27*
X136144000Y-123380500D02*
X138684000Y-120840500D01*
X125793500Y-131000500D02*
X129603500Y-134810500D01*
X129603500Y-79438500D02*
X134874000Y-79438500D01*
X138684000Y-104584500D02*
X138938000Y-104584500D01*
X134874000Y-110934500D02*
X136144000Y-109664500D01*
X148844000Y-91884500D02*
X146558000Y-91884500D01*
X141478000Y-138620500D02*
X141478000Y-57848500D01*
X125793500Y-85788500D02*
X129603500Y-89598500D01*
X134874000Y-84518500D02*
X136144000Y-83248500D01*
X134874000Y-103314500D02*
X136144000Y-102044500D01*
X125793500Y-123380500D02*
X129603500Y-127190500D01*
X125793500Y-120840500D02*
X129603500Y-124650500D01*
X133413500Y-70548500D02*
X128270000Y-70548500D01*
X129603500Y-81978500D02*
X134874000Y-81978500D01*
X138684000Y-131000500D02*
X138938000Y-131000500D01*
X135953500Y-70548500D02*
X136144000Y-70548500D01*
X142494000Y-138620500D02*
X142494000Y-57594500D01*
X148844000Y-131000500D02*
X146558000Y-131000500D01*
X129603500Y-132270500D02*
X134874000Y-132270500D01*
D28*
X144780000Y-86550500D02*
X144780000Y-67500500D01*
D27*
X144526000Y-138112500D02*
X146558000Y-136080500D01*
X138684000Y-83248500D02*
X138938000Y-83248500D01*
X129603500Y-100774500D02*
X134874000Y-100774500D01*
X133254750Y-85788500D02*
X129889250Y-85788500D01*
X123952000Y-116522500D02*
X123952000Y-92646500D01*
X148844000Y-83248500D02*
X146558000Y-83248500D01*
X136144000Y-112204500D02*
X138684000Y-109664500D01*
X148844000Y-68008500D02*
X146558000Y-68008500D01*
X138684000Y-75628500D02*
X138938000Y-75628500D01*
D28*
X144780000Y-67500500D02*
X146050000Y-66230500D01*
D27*
X135953500Y-118300500D02*
X136144000Y-118300500D01*
D29*
X140208000Y-136080500D02*
X140208000Y-112204500D01*
D27*
X148844000Y-85788500D02*
X146558000Y-85788500D01*
X125793500Y-102044500D02*
X129603500Y-105854500D01*
D29*
X134026000Y-140992500D02*
X134026000Y-141668500D01*
D27*
X129603500Y-134810500D02*
X134874000Y-134810500D01*
D28*
X149098000Y-38290500D02*
X149098000Y-38798500D01*
D27*
X138684000Y-80708500D02*
X138938000Y-80708500D01*
X134874000Y-113474500D02*
X136144000Y-112204500D01*
X133413500Y-94424500D02*
X131635500Y-92646500D01*
X136144000Y-83248500D02*
X138684000Y-80708500D01*
D28*
X146304000Y-154114500D02*
X146304000Y-150050500D01*
D27*
X129603500Y-137350500D02*
X134874000Y-137350500D01*
D28*
X147574000Y-66230500D02*
X149098000Y-64706500D01*
D27*
X138684000Y-133540500D02*
X138938000Y-133540500D01*
X134874000Y-79438500D02*
X136144000Y-78168500D01*
D28*
X130048000Y-138620500D02*
X131572000Y-140144500D01*
D27*
X148844000Y-123380500D02*
X146558000Y-123380500D01*
D28*
X141986000Y-156654500D02*
X144272000Y-154368500D01*
D27*
X136144000Y-73088500D02*
X138684000Y-70548500D01*
D28*
X126492000Y-138620500D02*
X128270000Y-138620500D01*
X143510000Y-138620500D02*
X143510000Y-27114500D01*
D27*
X136144000Y-70548500D02*
X138684000Y-68008500D01*
X129603500Y-74358500D02*
X134874000Y-74358500D01*
D29*
X144526000Y-152168500D02*
X139278000Y-152168500D01*
D27*
X128270000Y-70548500D02*
X127000000Y-69278500D01*
X125793500Y-94424500D02*
X129603500Y-98234500D01*
X148844000Y-80708500D02*
X146558000Y-80708500D01*
X148844000Y-78168500D02*
X146558000Y-78168500D01*
X138684000Y-70548500D02*
X138938000Y-70548500D01*
X129603500Y-113474500D02*
X134874000Y-113474500D01*
X134874000Y-76898500D02*
X136144000Y-75628500D01*
X136144000Y-80708500D02*
X138684000Y-78168500D01*
X144526000Y-141668500D02*
X144526000Y-138112500D01*
X134874000Y-134810500D02*
X136144000Y-133540500D01*
X138684000Y-125920500D02*
X138938000Y-125920500D01*
X138684000Y-109664500D02*
X138938000Y-109664500D01*
X148844000Y-128460500D02*
X146558000Y-128460500D01*
X125793500Y-118300500D02*
X129603500Y-122110500D01*
X133254750Y-83248500D02*
X130556000Y-83248500D01*
X129889250Y-85788500D02*
X129794000Y-85788500D01*
X129889250Y-85788500D02*
X129889250Y-85788500D01*
X125793500Y-78168500D02*
X129603500Y-81978500D01*
X125793500Y-133540500D02*
X129603500Y-137350500D01*
X138684000Y-73088500D02*
X138938000Y-73088500D01*
X134874000Y-89598500D02*
X136144000Y-88328500D01*
X133413500Y-96964500D02*
X135953500Y-94424500D01*
D28*
X146304000Y-150050500D02*
X144526000Y-148272500D01*
D27*
X134874000Y-108394500D02*
X136144000Y-107124500D01*
X136144000Y-109664500D02*
X138684000Y-107124500D01*
X134874000Y-127190500D02*
X136144000Y-125920500D01*
X129603500Y-110934500D02*
X134874000Y-110934500D01*
X129603500Y-84518500D02*
X134874000Y-84518500D01*
X125793500Y-83248500D02*
X129603500Y-87058500D01*
X133413500Y-118300500D02*
X131635500Y-116522500D01*
D28*
X147066000Y-36258500D02*
X149098000Y-38290500D01*
D27*
X134874000Y-105854500D02*
X136144000Y-104584500D01*
X142494000Y-57594500D02*
X138938000Y-54038500D01*
X148844000Y-125920500D02*
X146558000Y-125920500D01*
X135953500Y-94424500D02*
X136144000Y-94424500D01*
X134874000Y-100774500D02*
X136144000Y-99504500D01*
D29*
X138938000Y-88328500D02*
X140208000Y-88328500D01*
D27*
X141986000Y-139128500D02*
X142494000Y-138620500D01*
X136144000Y-131000500D02*
X138684000Y-128460500D01*
X148844000Y-104584500D02*
X146558000Y-104584500D01*
X138684000Y-115760500D02*
X138938000Y-115760500D01*
X129794000Y-85788500D02*
X129794000Y-85693250D01*
X129603500Y-87058500D02*
X134874000Y-87058500D01*
X133413500Y-104584500D02*
X131318000Y-104584500D01*
D28*
X128270000Y-138620500D02*
X128270000Y-139596500D01*
X143510000Y-27114500D02*
X147066000Y-23558500D01*
D27*
X133413500Y-120840500D02*
X135953500Y-118300500D01*
X138684000Y-99504500D02*
X138938000Y-99504500D01*
X125793500Y-125920500D02*
X129603500Y-129730500D01*
X140970000Y-139128500D02*
X141478000Y-138620500D01*
D29*
X123698000Y-148194500D02*
X126698000Y-151194500D01*
D27*
X125793500Y-73088500D02*
X129603500Y-76898500D01*
D28*
X143002000Y-139128500D02*
X143510000Y-138620500D01*
D27*
X136144000Y-118300500D02*
X138684000Y-115760500D01*
X134874000Y-124650500D02*
X136144000Y-123380500D01*
X138684000Y-128460500D02*
X138938000Y-128460500D01*
X148844000Y-115760500D02*
X146558000Y-115760500D01*
X136144000Y-88328500D02*
X138684000Y-85788500D01*
D28*
X143932000Y-152168500D02*
X144526000Y-152168500D01*
X149098000Y-28130500D02*
X147066000Y-26098500D01*
D29*
X129698000Y-145996500D02*
X129698000Y-146494500D01*
D27*
X138684000Y-85788500D02*
X138938000Y-85788500D01*
D28*
X146050000Y-154368500D02*
X146304000Y-154114500D01*
D27*
X141478000Y-57848500D02*
X140208000Y-56578500D01*
X148844000Y-107124500D02*
X146558000Y-107124500D01*
X148844000Y-99504500D02*
X146558000Y-99504500D01*
D28*
X146558000Y-88328500D02*
X144780000Y-86550500D01*
D27*
X136144000Y-85788500D02*
X138684000Y-83248500D01*
X136144000Y-107124500D02*
X138684000Y-104584500D01*
X132080000Y-102044500D02*
X133413500Y-102044500D01*
X125793500Y-109664500D02*
X129603500Y-113474500D01*
X148844000Y-70548500D02*
X146558000Y-70548500D01*
D28*
X127488000Y-68790500D02*
X127488000Y-67500500D01*
D29*
X123698000Y-146494500D02*
X123698000Y-148194500D01*
D27*
X138684000Y-94424500D02*
X138938000Y-94424500D01*
X124714000Y-69278500D02*
X123952000Y-70040500D01*
D29*
X138938000Y-136080500D02*
X140208000Y-136080500D01*
D27*
X136144000Y-133540500D02*
X138684000Y-131000500D01*
X148844000Y-133540500D02*
X146558000Y-133540500D01*
X138684000Y-118300500D02*
X138938000Y-118300500D01*
D29*
X148844000Y-147510500D02*
X148844000Y-141668500D01*
D28*
X123952000Y-134048500D02*
X123952000Y-136080500D01*
D29*
X140208000Y-112204500D02*
X138938000Y-112204500D01*
D27*
X136144000Y-128460500D02*
X138684000Y-125920500D01*
X148844000Y-75628500D02*
X146558000Y-75628500D01*
X129603500Y-89598500D02*
X134874000Y-89598500D01*
X138684000Y-120840500D02*
X138938000Y-120840500D01*
X140208000Y-56578500D02*
X124206000Y-56578500D01*
X136144000Y-102044500D02*
X138684000Y-99504500D01*
X131635500Y-116522500D02*
X123952000Y-116522500D01*
X125793500Y-80708500D02*
X129603500Y-84518500D01*
X134874000Y-122110500D02*
X136144000Y-120840500D01*
D28*
X144272000Y-154368500D02*
X146050000Y-154368500D01*
D27*
X129603500Y-127190500D02*
X134874000Y-127190500D01*
X129603500Y-124650500D02*
X134874000Y-124650500D01*
D28*
X149098000Y-38798500D02*
X149098000Y-28130500D01*
D27*
X129603500Y-108394500D02*
X134874000Y-108394500D01*
X138684000Y-78168500D02*
X138938000Y-78168500D01*
X129603500Y-103314500D02*
X134874000Y-103314500D01*
D28*
X143002000Y-150644500D02*
X144526000Y-152168500D01*
D27*
X129603500Y-129730500D02*
X134874000Y-129730500D01*
X134874000Y-137350500D02*
X136144000Y-136080500D01*
X138938000Y-54038500D02*
X124206000Y-54038500D01*
X138684000Y-123380500D02*
X138938000Y-123380500D01*
X138684000Y-68008500D02*
X138938000Y-68008500D01*
X136144000Y-104584500D02*
X138684000Y-102044500D01*
X136144000Y-136080500D02*
X138684000Y-133540500D01*
X127000000Y-69278500D02*
X124714000Y-69278500D01*
D28*
X128270000Y-138620500D02*
X130048000Y-138620500D01*
D27*
X125793500Y-75628500D02*
X129603500Y-79438500D01*
D29*
X134026000Y-141668500D02*
X129698000Y-145996500D01*
D27*
X148844000Y-120840500D02*
X146558000Y-120840500D01*
X134874000Y-87058500D02*
X136144000Y-85788500D01*
X133254750Y-80708500D02*
X131318000Y-80708500D01*
X129603500Y-76898500D02*
X134874000Y-76898500D01*
D28*
X146050000Y-66230500D02*
X147574000Y-66230500D01*
X139446000Y-156654500D02*
X143932000Y-152168500D01*
D27*
X131635500Y-92646500D02*
X123952000Y-92646500D01*
X148844000Y-102044500D02*
X146558000Y-102044500D01*
X123952000Y-70040500D02*
X123952000Y-92646500D01*
X134874000Y-74358500D02*
X136144000Y-73088500D01*
X136144000Y-94424500D02*
X138684000Y-91884500D01*
X138684000Y-91884500D02*
X138938000Y-91884500D01*
X148844000Y-109664500D02*
X146558000Y-109664500D01*
D28*
X128270000Y-139596500D02*
X128230000Y-139636500D01*
D27*
X136144000Y-75628500D02*
X138684000Y-73088500D01*
%TD*%
M02*
