%TF.GenerationSoftware,KiCad,Pcbnew,(7.0.0)*%
%TF.CreationDate,2023-05-15T22:46:06-04:00*%
%TF.ProjectId,clockPCB,636c6f63-6b50-4434-922e-6b696361645f,rev?*%
%TF.SameCoordinates,Original*%
%TF.FileFunction,Legend,Bot*%
%TF.FilePolarity,Positive*%
%FSLAX46Y46*%
G04 Gerber Fmt 4.6, Leading zero omitted, Abs format (unit mm)*
G04 Created by KiCad (PCBNEW (7.0.0)) date 2023-05-15 22:46:06*
%MOMM*%
%LPD*%
G01*
G04 APERTURE LIST*
%ADD10C,1.600000*%
%ADD11R,1.600000X1.600000*%
%ADD12R,1.295400X1.295400*%
%ADD13C,1.295400*%
%ADD14C,3.200000*%
%ADD15R,1.930000X1.930000*%
%ADD16C,1.930000*%
%ADD17C,1.200000*%
%ADD18O,2.500000X5.000000*%
%ADD19O,2.250000X4.500000*%
%ADD20O,4.500000X2.250000*%
%ADD21R,1.227074X1.227074*%
%ADD22C,1.227074*%
%ADD23C,1.524000*%
G04 APERTURE END LIST*
%LPC*%
D10*
%TO.C,REF\u002A\u002A*%
X124988000Y-67500500D03*
X127488000Y-67500500D03*
%TD*%
D11*
%TO.C,REF\u002A\u002A*%
X148843999Y-150010499D03*
D10*
X148844000Y-147510500D03*
%TD*%
D12*
%TO.C,REF\u002A\u002A*%
X125793499Y-70548499D03*
D13*
X125793500Y-73088500D03*
X125793500Y-75628500D03*
X125793500Y-78168500D03*
X125793500Y-80708500D03*
X125793500Y-83248500D03*
X125793500Y-85788500D03*
X125793500Y-88328500D03*
X133413500Y-88328500D03*
X133413500Y-85788500D03*
X133413500Y-83248500D03*
X133413500Y-80708500D03*
X133413500Y-78168500D03*
X133413500Y-75628500D03*
X133413500Y-73088500D03*
X133413500Y-70548500D03*
%TD*%
D14*
%TO.C,REF\u002A\u002A*%
X125476000Y-19748500D03*
X125476000Y-62928500D03*
X145796000Y-19748500D03*
X145796000Y-62928500D03*
D15*
X124205999Y-23558499D03*
D16*
X124206000Y-26098500D03*
X124206000Y-28638500D03*
X124206000Y-31178500D03*
X124206000Y-33718500D03*
X124206000Y-36258500D03*
X124206000Y-38798500D03*
X124206000Y-41338500D03*
X124206000Y-43878500D03*
X124206000Y-46418500D03*
X124206000Y-48958500D03*
X124206000Y-51498500D03*
X124206000Y-54038500D03*
X124206000Y-56578500D03*
X124206000Y-59118500D03*
D15*
X147065999Y-23558499D03*
D16*
X147066000Y-26098500D03*
X147066000Y-28638500D03*
X147066000Y-31178500D03*
X147066000Y-33718500D03*
X147066000Y-36258500D03*
X147066000Y-38798500D03*
X147066000Y-41338500D03*
X147066000Y-43878500D03*
X147066000Y-46418500D03*
X147066000Y-48958500D03*
X147066000Y-51498500D03*
X147066000Y-54038500D03*
X147066000Y-56578500D03*
X147066000Y-59118500D03*
%TD*%
D17*
%TO.C,REF\u002A\u002A*%
X136144000Y-68008500D03*
X136144000Y-70548500D03*
X136144000Y-73088500D03*
X136144000Y-75628500D03*
X136144000Y-78168500D03*
X136144000Y-80708500D03*
X136144000Y-83248500D03*
X136144000Y-85788500D03*
X136144000Y-88328500D03*
%TD*%
D18*
%TO.C,REF\u002A\u002A*%
X129697999Y-146494499D03*
D19*
X123697999Y-146494499D03*
D20*
X126697999Y-151194499D03*
%TD*%
D17*
%TO.C,REF\u002A\u002A*%
X136144000Y-115760500D03*
X136144000Y-118300500D03*
X136144000Y-120840500D03*
X136144000Y-123380500D03*
X136144000Y-125920500D03*
X136144000Y-128460500D03*
X136144000Y-131000500D03*
X136144000Y-133540500D03*
X136144000Y-136080500D03*
%TD*%
D21*
%TO.C,REF\u002A\u002A*%
X138937999Y-115760499D03*
D22*
X138938000Y-118300500D03*
X138938000Y-120840500D03*
X138938000Y-123380500D03*
X138938000Y-125920500D03*
X138938000Y-128460500D03*
X138938000Y-131000500D03*
X138938000Y-133540500D03*
X138938000Y-136080500D03*
X146558000Y-136080500D03*
X146558000Y-133540500D03*
X146558000Y-131000500D03*
X146558000Y-128460500D03*
X146558000Y-125920500D03*
X146558000Y-123380500D03*
X146558000Y-120840500D03*
X146558000Y-118300500D03*
X146558000Y-115760500D03*
%TD*%
D12*
%TO.C,REF\u002A\u002A*%
X125793499Y-118300499D03*
D13*
X125793500Y-120840500D03*
X125793500Y-123380500D03*
X125793500Y-125920500D03*
X125793500Y-128460500D03*
X125793500Y-131000500D03*
X125793500Y-133540500D03*
X125793500Y-136080500D03*
X133413500Y-136080500D03*
X133413500Y-133540500D03*
X133413500Y-131000500D03*
X133413500Y-128460500D03*
X133413500Y-125920500D03*
X133413500Y-123380500D03*
X133413500Y-120840500D03*
X133413500Y-118300500D03*
%TD*%
D23*
%TO.C,REF\u002A\u002A*%
X129540000Y-156146500D03*
X142240000Y-156146500D03*
X134620000Y-156146500D03*
X137160000Y-156146500D03*
X132080000Y-156146500D03*
X139700000Y-156146500D03*
%TD*%
D10*
%TO.C,REF\u002A\u002A*%
X125730000Y-139636500D03*
X128230000Y-139636500D03*
%TD*%
D12*
%TO.C,REF\u002A\u002A*%
X125793499Y-94424499D03*
D13*
X125793500Y-96964500D03*
X125793500Y-99504500D03*
X125793500Y-102044500D03*
X125793500Y-104584500D03*
X125793500Y-107124500D03*
X125793500Y-109664500D03*
X125793500Y-112204500D03*
X133413500Y-112204500D03*
X133413500Y-109664500D03*
X133413500Y-107124500D03*
X133413500Y-104584500D03*
X133413500Y-102044500D03*
X133413500Y-99504500D03*
X133413500Y-96964500D03*
X133413500Y-94424500D03*
%TD*%
D21*
%TO.C,REF\u002A\u002A*%
X138937999Y-91884499D03*
D22*
X138938000Y-94424500D03*
X138938000Y-96964500D03*
X138938000Y-99504500D03*
X138938000Y-102044500D03*
X138938000Y-104584500D03*
X138938000Y-107124500D03*
X138938000Y-109664500D03*
X138938000Y-112204500D03*
X146558000Y-112204500D03*
X146558000Y-109664500D03*
X146558000Y-107124500D03*
X146558000Y-104584500D03*
X146558000Y-102044500D03*
X146558000Y-99504500D03*
X146558000Y-96964500D03*
X146558000Y-94424500D03*
X146558000Y-91884500D03*
%TD*%
D17*
%TO.C,REF\u002A\u002A*%
X136144000Y-91884500D03*
X136144000Y-94424500D03*
X136144000Y-96964500D03*
X136144000Y-99504500D03*
X136144000Y-102044500D03*
X136144000Y-104584500D03*
X136144000Y-107124500D03*
X136144000Y-109664500D03*
X136144000Y-112204500D03*
%TD*%
D21*
%TO.C,REF\u002A\u002A*%
X138937999Y-68008499D03*
D22*
X138938000Y-70548500D03*
X138938000Y-73088500D03*
X138938000Y-75628500D03*
X138938000Y-78168500D03*
X138938000Y-80708500D03*
X138938000Y-83248500D03*
X138938000Y-85788500D03*
X138938000Y-88328500D03*
X146558000Y-88328500D03*
X146558000Y-85788500D03*
X146558000Y-83248500D03*
X146558000Y-80708500D03*
X146558000Y-78168500D03*
X146558000Y-75628500D03*
X146558000Y-73088500D03*
X146558000Y-70548500D03*
X146558000Y-68008500D03*
%TD*%
M02*
